<?xml version="1.0" standalone="no"?>
<!DOCTYPE svg PUBLIC "-//W3C//DTD SVG 1.1//EN" "http://www.w3.org/Graphics/SVG/1.1/DTD/svg11.dtd" >
<svg xmlns="http://www.w3.org/2000/svg">
<metadata>Generated by IcoMoon</metadata>
<defs>
<font id="fun-svg-font" horiz-adv-x="1024">
<font-face units-per-em="1024" ascent="960" descent="-64" />
<missing-glyph horiz-adv-x="1024" />
<glyph unicode="&#x20;" horiz-adv-x="512" d="" />
<glyph unicode="&#xe900;" glyph-name="fun88_social_fb" d="M853.333 960h-682.667c-89.6 0-170.667-81.067-170.667-170.667v-682.667c0-89.6 81.067-170.667 170.667-170.667h341.333v386.133h-125.867v170.667h125.867v66.133c0 115.2 85.333 217.6 192 217.6h138.667v-170.667h-138.667c-14.933 0-32-19.2-32-44.8v-68.267h170.667v-170.667h-170.667v-386.133h181.333c89.6 0 170.667 81.067 170.667 170.667v682.667c0 89.6-81.067 170.667-170.667 170.667z" />
<glyph unicode="&#xe901;" glyph-name="fun88_social_twitter" horiz-adv-x="1216" d="M1198.755 838.288c-27.877-12.672-55.753-20.277-83.635-27.877 32.948 30.41 55.753 68.425 68.425 108.978 5.067 12.672-10.138 22.81-20.277 15.205-40.548-22.81-83.635-40.548-129.25-53.22-2.533 0-5.067 0-7.605 0-7.605 0-15.205 2.533-22.81 7.605-45.62 43.082-106.44 65.892-169.798 65.892-27.877 0-55.753-5.067-83.635-12.672-86.168-25.343-149.527-96.307-172.337-182.47-7.605-32.948-10.138-65.892-5.067-96.307 0-2.533-2.533-5.067-2.533-7.605-2.533-2.533-5.067-2.533-7.605-2.533 0 0 0 0 0 0-185.008 17.738-354.807 106.44-473.918 253.433-5.067 5.067-17.738 5.067-22.81-5.067-22.81-38.015-35.482-83.635-35.482-131.783 0-70.963 27.877-136.855 78.563-187.542-20.277 5.067-40.548 12.672-60.825 22.81-7.605 7.605-20.277 0-20.277-10.138-2.533-106.44 60.825-200.213 152.060-240.762-2.533 0-2.533 0-5.067 0-15.205 0-30.41 2.533-43.082 5.067-10.138 2.533-17.738-7.605-15.205-17.738 30.41-93.768 111.512-162.198 207.813-179.937-81.097-55.753-174.87-83.635-271.172-83.635h-30.41c-10.138 0-17.738-5.067-20.277-15.205s2.533-17.738 10.138-22.81c108.978-63.358 235.695-96.307 362.412-96.307 111.512 0 215.418 22.81 309.187 65.892 86.168 40.548 162.198 96.307 225.557 169.798 60.825 68.425 106.44 144.455 139.388 233.157 30.41 81.097 48.153 169.798 48.153 253.433v5.067c0 12.672 5.067 25.343 17.738 35.482 40.548 32.948 76.030 70.963 103.907 114.045 5.067 7.605-7.605 22.81-20.277 17.738z" />
<glyph unicode="&#xe902;" glyph-name="fun88_social_youtube" d="M680.533 561.067c10.667 0 21.333 6.4 32 10.667 10.667 6.4 21.333 14.933 32 25.6v-29.867h53.333v277.333h-53.333v-211.2c-4.267-6.4-10.667-10.667-17.067-14.933s-10.667-6.4-14.933-6.4c-4.267 0-8.533 2.133-10.667 4.267s-4.267 8.533-4.267 14.933v213.333h-53.333v-230.4c0-17.067 4.267-29.867 8.533-36.267 6.4-8.533 14.933-17.067 27.733-17.067zM422.4 584.533c17.067-12.8 38.4-23.467 66.133-23.467s51.2 8.533 68.267 21.333c17.067 12.8 25.6 29.867 25.6 53.333v140.8c0 21.333-8.533 36.267-25.6 49.067s-38.4 19.2-64 19.2c-27.733 0-51.2-6.4-68.267-19.2s-25.6-27.733-25.6-49.067v-136.533c0-23.467 8.533-42.667 23.467-55.467zM460.8 770.133c0 4.267 2.133 8.533 8.533 12.8s12.8 4.267 21.333 4.267c8.533 0 17.067-2.133 23.467-4.267 6.4-4.267 8.533-8.533 8.533-12.8v-130.133c0-6.4-2.133-10.667-8.533-14.933s-12.8-6.4-23.467-6.4c-8.533 0-17.067 2.133-21.333 6.4s-8.533 8.533-8.533 14.933v130.133zM836.267 448h-648.533c-104.533 0-187.733-81.067-187.733-179.2v-151.467c0-100.267 83.2-181.333 187.733-181.333h650.667c102.4 0 187.733 81.067 187.733 179.2v151.467c-2.133 100.267-85.333 181.333-189.867 181.333zM283.733 292.267h-57.6v-238.933h-55.467v238.933h-57.6v40.533h170.667v-40.533zM454.4 51.2h-59.733v25.6c-10.667-8.533-23.467-17.067-34.133-21.333-12.8-4.267-23.467-6.4-34.133-6.4-14.933 0-23.467 4.267-32 10.667-6.4 6.4-10.667 17.067-10.667 29.867v187.733h59.733v-172.8c0-6.4 2.133-8.533 4.267-10.667s6.4-4.267 12.8-4.267c4.267 0 10.667 2.133 17.067 4.267s12.8 6.4 19.2 12.8v170.667h59.733l-2.133-226.133zM682.667 93.867c0-14.933-4.267-25.6-14.933-34.133-8.533-8.533-23.467-12.8-40.533-12.8-10.667 0-21.333 2.133-32 4.267-8.533 2.133-17.067 8.533-25.6 14.933v-14.933h-57.6v281.6h59.733v-91.733c8.533 6.4 17.067 10.667 25.6 14.933s19.2 4.267 27.733 4.267 32-4.267 42.667-12.8c10.667-8.533 14.933-21.333 14.933-38.4 0 2.133 0-115.2 0-115.2zM910.933 117.333c0-21.333-6.4-38.4-21.333-49.067s-36.267-17.067-64-17.067c-25.6 0-46.933 6.4-61.867 17.067s-21.333 27.733-21.333 49.067v96c0 19.2 8.533 34.133 25.6 44.8s36.267 17.067 64 17.067c25.6 0 46.933-6.4 61.867-17.067s21.333-25.6 21.333-46.933v-55.467h-110.933v-40.533c0-10.667 2.133-19.2 6.4-23.467s10.667-6.4 19.2-6.4c10.667 0 17.067 2.133 19.2 6.4 4.267 4.267 6.4 12.8 6.4 25.6v10.667h59.733v-10.667zM597.333 230.4l-12.8-2.133-12.8-6.4v-130.133c4.267-4.267 8.533-6.4 14.933-6.4l14.933-2.133c6.4 0 12.8 2.133 14.933 4.267 4.267 2.133 4.267 8.533 4.267 14.933v106.667c0 6.4-2.133 12.8-6.4 14.933-4.267 4.267-10.667 6.4-17.067 6.4zM251.733 561.067h68.267v166.4l78.933 232.533h-70.4l-40.533-160h-4.267l-44.8 160h-68.267l81.067-241.067zM853.333 213.333c0 8.533-2.133 14.933-6.4 19.2s-10.667 6.4-19.2 6.4c-8.533 0-14.933-2.133-19.2-6.4s-6.4-10.667-6.4-19.2v-21.333h51.2v21.333z" />
<glyph unicode="&#xe903;" glyph-name="fun88_bookmark_heart_checked" horiz-adv-x="1141" d="M1132.8 691.2c-32 164.267-149.333 268.8-298.667 268.8-83.2 0-174.933-34.133-264.533-100.267-89.6 66.133-179.2 100.267-264.533 100.267-149.333 0-266.667-106.667-298.667-273.067-46.933-245.333 104.533-571.733 550.4-748.8 4.267-2.133 10.667-2.133 14.933-2.133s10.667 2.133 14.933 2.133c443.733 185.6 595.2 509.867 546.133 753.067v0z" />
<glyph unicode="&#xe904;" glyph-name="fun88_bookmark_heart_unchecked" horiz-adv-x="1135" d="M1126.4 682.667c-32 168.533-155.733 277.333-311.467 277.333-78.933 0-164.267-29.867-247.467-87.467-85.333 57.6-168.533 87.467-249.6 87.467-157.867 0-279.467-110.933-311.467-281.6-46.933-243.2 100.267-565.333 535.467-738.133 10.667-4.267 21.333-4.267 25.6-4.267 8.533 0 14.933 2.133 21.333 4.267l4.267 2.133c435.2 179.2 582.4 499.2 533.333 740.267zM573.867-2.133c-2.133 0-4.267 0-4.267 0h-2.133c-401.067 160-539.733 452.267-497.067 669.867 25.6 140.8 123.733 230.4 249.6 230.4 72.533 0 151.467-29.867 230.4-89.6l19.2-12.8 19.2 12.8c78.933 57.6 157.867 87.467 230.4 87.467 125.867 0 224-89.6 249.6-228.267v0c40.533-211.2-96-503.467-494.933-669.867z" />
<glyph unicode="&#xe905;" glyph-name="fun88_pagination_radio_checked" d="M511.851-59.227c280.385 0 507.675 226.992 507.675 507.078s-227.29 507.377-507.675 507.377c-280.385 0-507.675-226.992-507.675-507.078 0-280.385 227.29-507.377 507.675-507.377z" />
<glyph unicode="&#xe906;" glyph-name="fun88_bookmark_star_checked" horiz-adv-x="1073" d="M1073.032 571.735c-4.267 10.667-12.8 19.2-23.467 21.333l-334.933 46.933-151.467 302.933c-4.267 10.667-14.933 17.067-27.733 17.067s-21.333-6.4-27.733-17.067l-149.333-302.933-334.933-49.067c-10.667-2.133-21.333-8.533-23.467-21.333-4.267-10.667 0-23.467 8.533-29.867l243.2-234.667-55.467-332.8c-2.133-10.667 2.133-23.467 12.8-29.867 4.267-4.267 10.667-6.4 17.067-6.4 4.267 0 8.533 2.133 12.8 4.267l298.667 157.867 300.8-155.733c4.267-2.133 8.533-4.267 12.8-4.267 17.067 0 29.867 12.8 29.867 29.867 0 2.133 0 4.267 0 6.4l-57.6 330.667 241.067 236.8c10.667 8.533 12.8 19.2 8.533 29.867v0z" />
<glyph unicode="&#xe907;" glyph-name="fun88_logo_fun_cn" horiz-adv-x="2608" d="M193.363 519.738h-40.548c-121.643-9.357-134.119-140.357-134.119-140.357l-18.714-417.952h165.31l9.357 199.619 318.143 3.119 6.238 118.524-321.262-6.238c0 0 0 34.31 3.119 74.857 3.119 43.667 43.667 49.905 43.667 49.905h290.071l12.476 118.524h-333.738zM913.863 522.857l-31.19-321.262c-9.357-96.69-34.31-118.524-106.048-118.524s-81.095 21.833-71.738 118.524l31.19 321.262h-162.19l-31.19-311.905c-15.595-171.548 40.548-252.643 227.69-252.643 221.452 0 249.524 77.976 268.238 255.762l31.19 311.905h-155.952zM1440.982 357.548c-9.357-84.214-12.476-90.452-12.476-165.31-15.595 40.548-37.429 77.976-56.143 121.643l-96.69 208.976h-149.714l-56.143-567.667h137.238l24.952 171.548c6.238 62.381 12.476 118.524 18.714 168.429 18.714-43.667 37.429-84.214 56.143-121.643l93.571-184.024c9.357-24.952 34.31-40.548 65.5-40.548 43.667 0 81.095 34.31 81.095 74.857l49.905 499.048h-137.238l-18.714-165.31zM2033.601 522.857h-321.262c-40.548 0-74.857-31.19-77.976-71.738l-12.476-152.833c-3.119-28.071 9.357-49.905 31.19-62.381-21.833-12.476-37.429-34.31-40.548-62.381l-12.476-152.833c-6.238-40.548 21.833-71.738 62.381-71.738h318.143c40.548 0 74.857 31.19 77.976 71.738l12.476 152.833c3.119 28.071-9.357 49.905-31.19 62.381 21.833 12.476 37.429 34.31 40.548 62.381l12.476 152.833c9.357 37.429-21.833 71.738-59.262 71.738zM1936.911 98.667c0-15.595-15.595-28.071-34.31-28.071h-140.357c-18.714 0-31.19 12.476-28.071 28.071l6.238 59.262c0 15.595 15.595 28.071 34.31 28.071h140.357c18.714 0 31.19-12.476 28.071-28.071l-6.238-59.262zM1955.625 313.881c0-15.595-15.595-28.071-34.31-28.071h-140.357c-18.714 0-31.19 12.476-28.071 28.071l6.238 59.262c0 15.595 15.595 28.071 34.31 28.071h140.357c18.714 0 31.19-12.476 28.071-28.071l-6.238-59.262zM2545.125 522.857h-321.262c-40.548 0-74.857-31.19-77.976-71.738l-12.476-152.833c-3.119-28.071 9.357-49.905 31.19-62.381-21.833-12.476-37.429-34.31-40.548-62.381l-12.476-152.833c-6.238-40.548 21.833-71.738 62.381-71.738h318.143c40.548 0 74.857 31.19 77.976 71.738l12.476 152.833c3.119 28.071-9.357 49.905-31.19 62.381 21.833 12.476 37.429 34.31 40.548 62.381l12.476 152.833c9.357 37.429-21.833 71.738-59.262 71.738zM2448.434 98.667c0-15.595-15.595-28.071-34.31-28.071h-140.357c-18.714 0-31.19 12.476-28.071 28.071l6.238 59.262c0 15.595 15.595 28.071 34.31 28.071h140.357c18.714 0 31.19-12.476 28.071-28.071l-6.238-59.262zM2467.149 313.881c0-15.595-15.595-28.071-34.31-28.071h-140.357c-18.714 0-31.19 12.476-28.071 28.071l6.238 59.262c0 15.595 15.595 28.071 34.31 28.071h140.357c18.714 0 31.19-12.476 28.071-28.071l-6.238-59.262zM205.839 713.119v0-24.952c-6.238-12.476-18.714-24.952-46.786-24.952l-3.119-59.262c0 0 109.167 9.357 112.286 68.619v15.595l3.119 21.833 3.119 46.786h71.738l6.238 49.905h-71.738l6.238 65.5h-65.5l-6.238-62.381h-81.095l6.238 74.857c99.81-3.119 208.976 18.714 208.976 18.714l-9.357 43.667c-40.548-18.714-249.524-24.952-249.524-24.952v-6.238l-9.357-106.048h-21.833l-6.238-53.024h155.952l-3.119-43.667zM68.601 619.548c0 0 3.119 0 3.119 0 6.238 3.119 18.714 6.238 24.952 18.714 0 0 0 0 0 0 0 3.119 3.119 6.238 3.119 6.238v0l53.024 99.81h-56.143l-28.071-53.024-12.476-21.833c-3.119-3.119-6.238-6.238-9.357-9.357h-18.714l-3.119-43.667h43.667zM608.196 613.31c3.119 0 3.119 0 0 0 6.238-3.119 12.476-3.119 15.595-3.119 0 0 0 0 3.119 0 0 0 0 0 3.119 0 24.952-6.238 43.667-6.238 49.905-6.238v0 0c3.119 0 3.119 0 3.119 0h258.881l3.119 53.024h-102.929v18.714h102.929l3.119 34.31h-102.929v12.476h90.452l3.119 31.19v62.381h12.476l3.119 68.619h-31.19l3.119 21.833h-49.905l-3.119-21.833h-31.19l3.119 21.833h-49.905l-3.119-21.833h-31.19l3.119 21.833h-49.905l-3.119-21.833h-24.952l-3.119-68.619h12.476l-3.119-68.619v-24.952h106.048v-12.476h-112.286l-3.119-37.429h115.405v-18.714h-112.286c-3.119 0-12.476 0-24.952 0-62.381 9.357-93.571 40.548-106.048 65.5v28.071h124.762l6.238 56.143h-131l3.119 46.786h115.405l3.119 43.667-321.262 3.119-6.238-49.905h146.595v-43.667h-131l-6.238-53.024h134.119v-24.952c-3.119-9.357-15.595-34.31-40.548-49.905 0 0 0 0 0 0-37.429-31.19-102.929-21.833-102.929-21.833 0 3.119 0 3.119 0 6.238-3.119 18.714-3.119 59.262-6.238 74.857 0 3.119 0 6.238 0 6.238l-59.262-9.357v-21.833h6.238l6.238-99.81c0 0 21.833-12.476 74.857-9.357 12.476 0 31.19 3.119 49.905 6.238v0 0c34.31 6.238 74.857 24.952 99.81 59.262 24.952-28.071 59.262-43.667 87.333-53.024v0zM720.482 841h193.381v-24.952h-196.5l3.119 24.952zM736.077 750.548v28.071h162.19v-28.071h-162.19z" />
<glyph unicode="&#xe908;" glyph-name="fun88_logo_fun_en" horiz-adv-x="3408" d="M226.666 476.333l415.556 3.148 9.444 154.259-418.704-3.148c0 0 0 44.074 6.296 97.593 6.296 56.667 56.667 66.111 56.667 66.111h377.778l18.889 157.407-494.259-3.148c-160.556-12.593-173.148-185.741-173.148-185.741l-25.185-544.63h214.074l12.593 258.148zM1397.777 951.704h-204.63l-40.926-418.704c-12.593-125.926-47.222-157.407-135.37-157.407-94.444 0-107.037 28.333-94.444 157.407l40.926 418.704h-210.926l-40.926-409.259c-22.037-223.519 53.519-330.556 295.926-330.556 289.63 0 324.259 103.889 349.444 333.704l40.926 406.111zM1901.48 948.556l-22.037-214.074c-12.593-110.185-15.741-119.63-15.741-214.074-22.037 53.519-47.222 100.741-75.556 160.556l-125.926 270.741h-195.185l-75.556-739.815h182.593l31.481 223.519c9.444 78.704 18.889 154.259 25.185 220.37 22.037-53.519 50.37-110.185 72.407-160.556l122.778-242.407c12.593-31.481 44.074-53.519 88.148-53.519 56.667 0 103.889 44.074 107.037 97.593l62.963 651.667h-182.593zM2666.48 577.074c28.333 15.741 50.37 47.222 53.519 81.852l18.889 195.185c3.148 53.519-34.63 94.444-85 94.444h-418.704c-50.37 0-97.593-40.926-100.741-94.444l-18.889-198.333c-3.148-34.63 12.593-66.111 37.778-81.852-28.333-15.741-50.37-47.222-53.519-81.852l-18.889-198.333c-3.148-53.519 34.63-94.444 85-94.444h415.556c50.37 0 97.593 40.926 100.741 94.444l18.889 198.333c6.296 37.778-9.444 66.111-34.63 85zM2527.962 397.63c-3.148-22.037-22.037-37.778-44.074-37.778h-182.593c-22.037 0-40.926 15.741-37.778 37.778l6.296 78.704c3.148 22.037 22.037 37.778 44.074 37.778h182.593c22.037 0 40.926-15.741 37.778-37.778l-6.296-78.704zM2553.147 677.815c-3.148-22.037-22.037-37.778-44.074-37.778h-182.593c-22.037 0-40.926 15.741-37.778 37.778l6.296 78.704c0 22.037 22.037 37.778 44.074 37.778h182.593c22.037 0 40.926-15.741 37.778-37.778l-6.296-78.704zM3321.295 948.556h-418.704c-50.37 0-97.593-40.926-100.741-94.444l-18.889-198.333c-3.148-34.63 12.593-66.111 37.778-81.852-28.333-15.741-50.37-47.222-53.519-81.852l-18.889-198.333c-3.148-53.519 34.63-94.444 85-94.444h415.556c50.37 0 97.593 40.926 100.741 94.444l18.889 198.333c3.148 34.63-12.593 66.111-37.778 81.852 28.333 15.741 50.37 47.222 53.519 81.852l18.889 198.333c6.296 53.519-31.481 94.444-81.852 94.444zM3195.369 397.63c-3.148-22.037-22.037-37.778-44.074-37.778h-182.593c-22.037 0-40.926 15.741-37.778 37.778l6.296 78.704c3.148 22.037 22.037 37.778 44.074 37.778h182.593c22.037 0 40.926-15.741 37.778-37.778l-6.296-78.704zM3220.555 677.815c-3.148-22.037-22.037-37.778-44.074-37.778h-185.741c-22.037 0-40.926 15.741-37.778 37.778l6.296 78.704c3.148 22.037 25.185 37.778 47.222 37.778h182.593c22.037 0 40.926-15.741 37.778-37.778l-6.296-78.704zM103.888 48.185l-40.926 6.296c-22.037 3.148-28.333 12.593-28.333 22.037 0 22.037 22.037 28.333 40.926 28.333 40.926 0 50.37-18.889 50.37-31.481h25.185c-3.148 40.926-37.778 53.519-75.556 53.519-44.074 0-69.259-22.037-69.259-53.519 0-34.63 31.481-40.926 50.37-44.074l40.926-6.296c18.889-3.148 31.481-9.444 31.481-25.185 0-18.889-18.889-28.333-47.222-28.333-25.185 0-56.667 9.444-56.667 37.778h-22.037c0-47.222 40.926-62.963 78.704-62.963 34.63 0 75.556 15.741 75.556 59.815 0 34.63-37.778 40.926-53.519 44.074zM277.036 123.741h-91.296v-173.148h25.185v69.259h66.111c37.778 0 56.667 22.037 56.667 53.519 0 34.63-18.889 50.37-56.667 50.37zM273.888 41.889h-62.963v59.815h66.111c18.889 0 28.333-12.593 28.333-28.333 3.148-15.741-6.296-31.481-31.481-31.481zM456.48 130.037c-69.259 0-97.593-47.222-97.593-91.296s28.333-91.296 97.593-91.296 97.593 47.222 97.593 91.296c-3.148 44.074-28.333 91.296-97.593 91.296zM456.48-30.519c-40.926 0-72.407 22.037-72.407 69.259s31.481 69.259 72.407 69.259c40.926 0 72.407-22.037 72.407-69.259-3.148-47.222-34.63-69.259-72.407-69.259zM714.629 35.593v0c18.889 6.296 28.333 22.037 28.333 44.074s-12.593 47.222-47.222 47.222h-107.037v-173.148h25.185v72.407h66.111c22.037 0 31.481-9.444 34.63-40.926 0-22.037 0-28.333 6.296-34.63h28.333c-6.296 6.296-6.296 15.741-9.444 47.222-3.148 18.889-12.593 34.63-25.185 37.778zM686.295 45.037h-72.407v56.667h72.407c22.037 0 31.481-12.593 31.481-28.333 0-12.593-6.296-28.333-31.481-28.333zM758.703 101.704h66.111v-151.111h25.185v151.111h66.111v22.037h-157.407zM1029.443 48.185l-44.074 6.296c-22.037 3.148-28.333 12.593-28.333 22.037 0 22.037 22.037 28.333 40.926 28.333 40.926 0 50.37-18.889 50.37-31.481h25.185c-3.148 40.926-37.778 53.519-75.556 53.519-44.074 0-69.259-22.037-69.259-53.519 0-34.63 31.481-40.926 50.37-44.074l40.926-6.296c18.889-3.148 31.481-9.444 31.481-25.185 0-18.889-18.889-28.333-47.222-28.333-25.185 0-56.667 9.444-56.667 37.778h-25.185c0-47.222 40.926-62.963 78.704-62.963 34.63 0 75.556 12.593 75.556 56.667 3.148 37.778-34.63 44.074-47.222 47.222zM1234.073 41.889v0c12.593 6.296 25.185 15.741 25.185 37.778 0 28.333-15.741 44.074-53.519 44.074h-97.593v-173.148h103.889c37.778 0 53.519 25.185 53.519 50.37 3.148 25.185-9.444 37.778-31.481 40.926zM1136.48 101.704h69.259c22.037 0 28.333-9.444 28.333-25.185 0-12.593-9.444-25.185-28.333-25.185h-69.259v50.37zM1205.74-27.37h-69.259v56.667h72.407c25.185 0 34.63-12.593 34.63-28.333-3.148-12.593-9.444-28.333-37.778-28.333zM1391.48 130.037c-69.259 0-97.593-47.222-97.593-91.296s28.333-91.296 97.593-91.296c69.259 0 97.593 47.222 97.593 91.296s-25.185 91.296-97.593 91.296zM1391.48-30.519c-37.778 0-69.259 22.037-69.259 69.259s31.481 69.259 72.407 69.259c40.926 0 72.407-22.037 72.407-69.259-3.148-47.222-34.63-69.259-75.556-69.259zM1611.851 130.037c-69.259 0-97.593-47.222-97.593-91.296s28.333-91.296 97.593-91.296c69.259 0 97.593 47.222 97.593 91.296-3.148 44.074-28.333 91.296-97.593 91.296zM1611.851-30.519c-40.926 0-72.407 22.037-72.407 69.259s31.481 69.259 72.407 69.259c40.926 0 72.407-22.037 72.407-69.259-3.148-47.222-34.63-69.259-72.407-69.259zM1901.48 123.741h-34.63l-97.593-88.148v88.148h-25.185v-173.148h25.185v56.667l31.481 28.333 69.259-85h37.778l-88.148 100.741zM2178.518 29.296h-22.037c0-12.593-3.148-18.889-9.444-28.333l-47.222 44.074c25.185 9.444 34.63 28.333 34.63 40.926 0 22.037-15.741 37.778-44.074 37.778s-44.074-15.741-44.074-37.778c0-9.444 3.148-22.037 18.889-34.63-31.481-12.593-44.074-31.481-44.074-50.37 0-22.037 15.741-50.37 69.259-50.37 25.185 0 47.222 9.444 62.963 25.185l22.037-18.889h34.63l-40.926 37.778c6.296 9.444 9.444 22.037 9.444 34.63zM2090.369 104.852c12.593 0 22.037-9.444 22.037-18.889s-6.296-18.889-25.185-25.185c-12.593 12.593-18.889 18.889-18.889 28.333 0 6.296 6.296 15.741 22.037 15.741zM2090.369-33.667c-34.63 0-44.074 18.889-44.074 31.481s6.296 25.185 34.63 37.778l56.667-50.37c-12.593-15.741-31.481-18.889-47.222-18.889zM2395.74 104.852c37.778 0 56.667-22.037 59.815-44.074h25.185c-3.148 53.519-53.519 66.111-88.148 66.111-59.815 0-91.296-40.926-91.296-91.296 0-69.259 47.222-91.296 91.296-91.296 50.37 0 81.852 31.481 88.148 72.407h-25.185c-6.296-34.63-31.481-47.222-59.815-47.222-47.222 0-66.111 34.63-66.111 66.111 0 47.222 25.185 69.259 66.111 69.259zM2575.184 123.741l-78.704-173.148h28.333l22.037 50.37h85l22.037-50.37h28.333l-78.704 173.148h-28.333zM2556.295 23l31.481 75.556 34.63-75.556h-66.111zM2795.555 48.185l-44.074 6.296c-22.037 3.148-28.333 12.593-28.333 22.037 0 22.037 22.037 28.333 40.926 28.333 40.926 0 50.37-18.889 50.37-31.481h25.185c-3.148 40.926-37.778 53.519-75.556 53.519-44.074 0-69.259-22.037-69.259-53.519 0-34.63 31.481-40.926 50.37-44.074l40.926-6.296c18.889-3.148 31.481-9.444 31.481-25.185 0-18.889-18.889-28.333-47.222-28.333-25.185 0-56.667 9.444-56.667 37.778h-25.185c0-47.222 40.926-62.963 78.704-62.963 34.63 0 75.556 12.593 75.556 56.667 6.296 37.778-34.63 44.074-47.222 47.222zM2877.406 123.741h25.185v-173.148h-25.185v173.148zM3094.629-14.778v0l-113.333 138.519h-28.333v-173.148h25.185v138.519l110.185-138.519h31.481v173.148h-25.185zM3252.036 130.037c-69.259 0-97.593-47.222-97.593-91.296s28.333-91.296 97.593-91.296c69.259 0 97.593 47.222 97.593 91.296s-28.333 91.296-97.593 91.296zM3252.036-30.519c-40.926 0-72.407 22.037-72.407 69.259s31.481 69.259 72.407 69.259c40.926 0 72.407-22.037 72.407-69.259-3.148-47.222-34.63-69.259-72.407-69.259z" />
<glyph unicode="&#xe909;" glyph-name="fun88_arrow_thin_left" horiz-adv-x="525" d="M524.8 945.067l-14.933 14.933-509.867-509.867 2.133-2.133-2.133-2.133 509.867-509.867 14.933 14.933-497.067 497.067z" />
<glyph unicode="&#xe90a;" glyph-name="fun88_livechat" horiz-adv-x="1136" d="M966.887 800.863c-106.212 94.411-247.829 146.337-398.888 146.337s-292.676-51.925-398.888-146.337c-108.573-94.411-167.58-219.505-167.58-354.044 0-108.573 40.125-214.785 115.654-302.116-16.523-35.405-37.763-61.368-68.449-80.249-14.162-9.442-21.243-28.324-18.882-44.844 4.72-16.523 18.882-30.682 35.405-33.044 18.882-2.361 35.405-4.72 54.287-4.72 56.648 0 108.573 11.801 155.779 37.763 87.33-47.206 188.823-70.81 292.676-70.81 151.059 0 292.676 51.925 398.888 146.337 108.573 94.411 167.58 219.505 167.58 354.044 0 132.175-59.006 257.271-167.58 351.683zM567.999 3.090c-99.131 0-195.904 25.963-278.514 73.168-4.72 2.361-9.442 4.72-14.162 4.72s-9.442-2.361-14.162-4.72c-40.125-23.601-87.33-37.763-141.617-37.763-4.72 0-9.442 0-11.801 0 30.682 25.963 54.287 61.368 68.449 101.492 4.72 9.442 2.361 21.243-4.72 28.324-75.53 80.249-113.293 177.022-113.293 278.514 0 245.471 228.947 443.733 509.82 443.733s509.82-198.265 509.82-443.733c0-245.471-228.947-443.733-509.82-443.733z" />
<glyph unicode="&#xe90b;" glyph-name="fun88_arrow_thin_right" horiz-adv-x="525" d="M524.9 445.867l-509.867-509.867-14.933 14.933 497.067 497.067-497.067 497.067 14.933 14.933 509.867-509.867-2.133-2.133 2.133-2.133z" />
<glyph unicode="&#xe90c;" glyph-name="fun88_bookmark_star_unchecked" horiz-adv-x="1073" d="M1074.099 571.735c-4.267 10.667-12.8 19.2-23.467 21.333l-334.933 46.933-151.467 302.933c-4.267 10.667-14.933 17.067-27.733 17.067s-21.333-6.4-27.733-17.067l-149.333-302.933-334.933-49.067c-10.667-2.133-21.333-8.533-23.467-21.333-4.267-10.667 0-23.467 8.533-29.867l243.2-234.667-55.467-332.8c-2.133-10.667 2.133-23.467 12.8-29.867 4.267-4.267 10.667-6.4 17.067-6.4 4.267 0 8.533 2.133 12.8 4.267l298.667 157.867 300.8-155.733c4.267-2.133 8.533-4.267 12.8-4.267 17.067 0 29.867 12.8 29.867 29.867 0 2.133 0 4.267 0 6.4l-57.6 330.667 241.067 236.8c8.533 8.533 10.667 19.2 8.533 29.867v0zM771.165 337.069c-6.4-6.4-10.667-17.067-8.533-25.6l51.2-288-260.267 136.533c-8.533 4.267-19.2 4.267-27.733 0l-258.133-136.533 49.067 290.133c2.133 10.667-2.133 19.2-8.533 25.6l-211.2 204.8 290.133 42.667c10.667 2.133 19.2 6.4 21.333 17.067l128 264.533 130.133-262.4c4.267-8.533 12.8-14.933 23.467-17.067l290.133-40.533-209.067-211.2z" />
<glyph unicode="&#xe90d;" glyph-name="fun88_arrow_thick_up" horiz-adv-x="1664" d="M1664.004 136l-832.004 811.2-832.004-811.2 187.2-187.2 644.804 630.931 644.804-630.931 187.2 187.2z" />
<glyph unicode="&#xe90e;" glyph-name="fun88_arrow_thick_down" horiz-adv-x="1664" d="M1476.804 947.2l-644.804-630.931-644.804 630.931-187.2-187.2 832.004-811.2 832.004 811.2-187.2 187.2z" />
<glyph unicode="&#xe90f;" glyph-name="fun88_arrow_thick_left" horiz-adv-x="614" d="M614.2 51.2l-388.267 396.8 388.267 396.8-115.2 115.2-499.2-512 499.2-512 115.2 115.2z" />
<glyph unicode="&#xe910;" glyph-name="fun88_arrow_thick_right" horiz-adv-x="614" d="M115-64l499.2 512-499.2 512-115.2-115.2 388.267-396.8-388.267-396.8 115.2-115.2z" />
<glyph unicode="&#xe911;" glyph-name="down_btn" d="M512 960c-281.6 0-512-230.4-512-512s230.4-512 512-512 512 230.4 512 512-230.4 512-512 512zM512-21.333c-260.267 0-471.467 209.067-471.467 471.467 0 260.267 209.067 471.467 471.467 471.467 260.267 0 471.467-209.067 471.467-471.467-2.133-262.4-211.2-471.467-471.467-471.467zM706.133 546.133l-200.533-200.533-200.533 200.533c-10.667 10.667-25.6 10.667-40.533 0-4.267-4.267-10.667-14.933-10.667-21.333 0-4.267 4.267-14.933 10.667-21.333l219.733-219.733c4.267-4.267 14.933-10.667 21.333-10.667 10.667 0 14.933 4.267 21.333 10.667l219.733 219.733c10.667 10.667 10.667 29.867 0 40.533-10.667 12.8-29.867 12.8-40.533 2.133z" />
<glyph unicode="&#xe912;" glyph-name="right_circle_button" d="M512 960c-281.6 0-512-230.4-512-512s230.4-512 512-512 512 230.4 512 512c0 281.6-230.4 512-512 512zM512-23.467c-260.267 0-471.467 209.067-471.467 471.467 0 260.267 209.067 471.467 471.467 471.467s471.467-209.067 471.467-471.467c0-260.267-211.2-471.467-471.467-471.467zM456.533 684.8c-10.667 10.667-29.867 10.667-40.533 0s-10.667-29.867 0-40.533l200.533-200.533-200.533-200.533c-10.667-10.667-10.667-25.6 0-40.533 4.267-4.267 14.933-10.667 21.333-10.667 4.267 0 14.933 4.267 21.333 10.667l219.733 219.733c4.267 4.267 10.667 14.933 10.667 21.333 0 10.667-4.267 14.933-10.667 21.333l-221.867 219.733z" />
<glyph unicode="&#xe913;" glyph-name="fun88_help" d="M512 960c-283.733 0-512-228.267-512-512s228.267-512 512-512 512 228.267 512 512-228.267 512-512 512zM512 14.933c-238.933 0-433.067 194.133-433.067 433.067s194.133 433.067 433.067 433.067c238.933 0 433.067-194.133 433.067-433.067s-194.133-433.067-433.067-433.067zM507.733 251.733c-19.2 0-34.133-6.4-46.933-19.2s-19.2-27.733-19.2-44.8c0-21.333 6.4-36.267 19.2-46.933s27.733-17.067 44.8-17.067c17.067 0 32 6.4 44.8 17.067s19.2 27.733 19.2 46.933c0 17.067-6.4 34.133-19.2 44.8-10.667 12.8-25.6 19.2-42.667 19.2zM627.2 748.8c-32 14.933-68.267 23.467-108.8 23.467-44.8 0-83.2-8.533-117.333-27.733s-59.733-40.533-76.8-68.267c-17.067-27.733-25.6-55.467-25.6-83.2 0-12.8 6.4-25.6 17.067-36.267s23.467-17.067 40.533-17.067c27.733 0 44.8 17.067 55.467 49.067 10.667 29.867 23.467 53.333 38.4 70.4 14.933 14.933 38.4 23.467 70.4 23.467 27.733 0 49.067-8.533 66.133-23.467s25.6-34.133 25.6-57.6c0-10.667-2.133-23.467-8.533-32-6.4-10.667-12.8-19.2-21.333-27.733s-21.333-19.2-40.533-36.267c-21.333-19.2-38.4-34.133-49.067-46.933-12.8-12.8-21.333-27.733-29.867-46.933-6.4-17.067-10.667-38.4-10.667-61.867 0-19.2 4.267-34.133 14.933-42.667 10.667-10.667 23.467-14.933 38.4-14.933 27.733 0 44.8 14.933 51.2 44.8 2.133 14.933 6.4 23.467 6.4 29.867 2.133 6.4 4.267 10.667 6.4 17.067s6.4 10.667 12.8 19.2c6.4 6.4 12.8 14.933 23.467 23.467 34.133 32 59.733 53.333 72.533 66.133s25.6 29.867 34.133 46.933c10.667 19.2 14.933 40.533 14.933 64 0 29.867-8.533 59.733-25.6 85.333-19.2 23.467-42.667 44.8-74.667 59.733z" />
<glyph unicode="&#xe914;" glyph-name="fun88_nortify" horiz-adv-x="1280" d="M747.865 273.588c76.639 31.714 137.417 76.639 182.342 132.131s66.065 116.277 66.065 182.342c0 66.065-21.141 126.844-66.065 182.342s-105.703 100.417-182.342 132.131c-76.639 31.714-158.558 47.568-248.407 47.568s-174.412-15.854-251.051-47.568c-76.639-31.714-137.417-76.639-182.342-132.131s-66.065-116.277-66.065-182.342c0-55.492 15.854-108.347 50.211-158.558s79.276-92.493 137.417-124.201c-5.287-10.573-10.573-21.141-13.211-31.714-5.287-10.573-10.573-18.497-18.497-26.427s-13.211-15.854-15.854-21.141c-2.643-5.287-10.573-13.211-18.497-21.141s-13.211-15.854-15.854-18.497c0 0 0 0-2.643-2.643s-2.643-2.643-2.643-2.643 0 0-2.643-2.643-2.643-2.643-2.643-2.643l-2.643-2.643c0-2.643 0-2.643-2.643-5.287 0-2.643 0-2.643 0-5.287s0-2.643 0-5.287c0-5.287 2.643-10.573 7.93-15.854 5.287-2.643 10.573-5.287 13.211-5.287h2.643c23.784 2.643 44.925 7.93 60.779 10.573 73.995 18.497 137.417 50.211 195.553 89.849 42.281-7.93 84.563-10.573 124.201-10.573 95.136 0 177.055 15.854 253.694 47.568zM351.473 331.723l-31.714-21.141c-13.211-7.93-29.071-18.497-44.925-26.427l23.784 60.779-68.709 39.638c-44.925 26.427-79.276 58.135-105.703 92.493-23.784 36.995-36.995 73.995-36.995 110.99 0 47.568 18.497 92.493 55.492 134.774 39.638 42.281 89.849 73.995 153.271 100.417 63.422 23.784 129.487 36.995 203.483 36.995 71.352 0 140.061-13.211 203.483-36.995s113.633-58.135 150.628-100.417c36.995-42.281 55.492-87.206 55.492-134.774s-18.497-92.493-55.492-134.774c-36.995-42.281-87.206-73.995-150.628-100.417-63.422-23.784-129.487-36.995-203.483-36.995-34.351 0-71.352 2.643-108.347 10.573l-39.638 5.287zM1218.253 247.161c34.351 50.211 50.211 103.060 50.211 158.558 0 58.135-18.497 113.633-52.855 163.845s-84.563 92.493-145.341 126.844c10.573-34.351 15.854-71.352 15.854-108.347 0-63.422-15.854-124.201-47.568-179.699s-76.639-105.703-134.774-150.628c-55.492-39.638-116.277-71.352-187.629-92.493-68.709-21.141-142.704-31.714-219.337-31.714-13.211 0-34.351 0-63.422 2.643 95.136-63.422 206.126-92.493 332.97-92.493 39.638 0 81.919 2.643 124.201 10.573 58.135-42.281 124.201-71.352 195.553-89.849 15.854-5.287 36.995-7.93 60.779-10.573 5.287 0 10.573 0 15.854 5.287 5.287 2.643 7.93 7.93 7.93 15.854 0 2.643 0 5.287 0 5.287s0 2.643 0 5.287c0 2.643-2.643 5.287-2.643 5.287l-2.643 2.643c0 0 0 2.643-2.643 2.643 0 2.643-2.643 2.643-2.643 2.643s-2.643 2.643-2.643 2.643-2.643 2.643-2.643 2.643c-2.643 2.643-7.93 7.93-15.854 18.497-7.93 7.93-15.854 15.854-18.497 21.141s-7.93 10.573-15.854 21.141c-7.93 7.93-13.211 18.497-18.497 26.427-5.287 10.573-10.573 21.141-13.211 31.714 66.065 34.351 110.99 73.995 145.341 124.201z" />
<glyph unicode="&#xe915;" glyph-name="fun88_profile" horiz-adv-x="655" d="M328.533 520.533c121.6 0 219.733 98.133 219.733 219.733s-100.267 219.733-219.733 219.733c-121.6 0-221.867-98.133-221.867-219.733s100.267-219.733 221.867-219.733zM654.933 51.2v113.067c0 181.333-147.2 328.533-328.533 328.533s-326.4-147.2-326.4-328.533v-113.067c0 0 279.467-258.133 654.933 0z" />
<glyph unicode="&#xe916;" glyph-name="fun88_reward" horiz-adv-x="1056" d="M848.058 954.632h-638.797l-209.261-303.979 528.659-711.488 528.659 711.488-209.261 303.979zM964.804 674.883h-215.87l81.501 193.841 134.367-193.841zM795.192 892.955l-85.907-200.45-134.367 200.45h220.274zM669.636 674.883h-259.924l121.151 207.058 138.773-207.058zM484.605 892.955l-114.543-196.045-105.732 196.045h220.274zM226.883 870.928l107.934-196.045h-242.303l134.367 196.045zM92.516 630.828h262.127l123.354-519.849-385.48 519.849zM398.698 630.828h288.56l-156.395-555.092-132.165 555.092zM588.134 124.196l143.179 506.632h233.491l-376.67-506.632z" />
<glyph unicode="&#xe917;" glyph-name="fun88_sports" horiz-adv-x="1056" d="M1020.515 877.805h-121.227v28.653c0 19.837-17.633 37.471-37.471 37.471h-665.648c-19.837 0-37.471-17.633-37.471-37.471v-28.653h-121.227c-19.837 0-37.471-17.633-37.471-37.471v-251.271c0-156.494 123.432-284.333 279.924-288.741 57.308-52.899 130.044-92.573 211.596-101.39v-176.331h-130.044c-19.837 0-37.471-17.633-37.471-37.471s17.633-37.471 37.471-37.471h332.823c19.837 0 37.471 17.633 37.471 37.471s-17.633 37.471-37.471 37.471h-130.044v176.331c81.552 8.816 154.289 48.491 211.596 101.39 154.289 4.409 279.924 132.248 279.924 288.741v251.271c2.204 19.837-15.429 37.471-35.266 37.471zM74.943 589.064v213.8h83.757v-229.23c0-66.124 17.633-127.839 48.491-182.943-77.145 33.062-132.248 110.207-132.248 198.372zM824.348 573.635c0-163.106-132.248-295.354-295.354-295.354s-295.354 132.248-295.354 295.354v295.354h590.706v-295.354zM983.045 589.064c0-88.165-55.103-165.31-132.248-198.372 30.858 52.899 48.491 116.819 48.491 182.943v229.23h83.757v-213.8zM526.79 730.129h2.204v-346.048h50.695v396.743h-44.083l-88.165-46.287 11.021-39.674z" />
<glyph unicode="&#xe918;" glyph-name="bet" horiz-adv-x="870" d="M0 960v-1024h870.4v1024h-870.4zM849.067-42.667h-827.733v981.333h827.733v-981.333zM200.533 358.4h96v-228.267h-96v228.267zM381.867 699.733h96v-563.2h-96v563.2zM576 573.867h96v-439.467h-96v439.467z" />
<glyph unicode="&#xe919;" glyph-name="details_symbol" horiz-adv-x="981" d="M433.067 744.533h-394.667c-21.333 0-40.533-34.133-40.533-76.8s17.067-76.8 40.533-76.8h394.667c21.333 0 40.533 34.133 40.533 76.8 0 38.4-19.2 76.8-40.533 76.8zM433.067 524.8h-394.667c-21.333 0-40.533-34.133-40.533-76.8s17.067-76.8 40.533-76.8h394.667c21.333 0 40.533 34.133 40.533 76.8 0 40.533-19.2 76.8-40.533 76.8zM433.067 307.2h-394.667c-21.333 0-40.533-34.133-40.533-76.8s17.067-76.8 40.533-76.8h394.667c21.333 0 40.533 34.133 40.533 76.8 0 44.8-19.2 76.8-40.533 76.8zM433.067 89.6h-394.667c-21.333 0-40.533-34.133-40.533-76.8s17.067-76.8 40.533-76.8h394.667c21.333 0 40.533 34.133 40.533 76.8s-19.2 76.8-40.533 76.8zM546.133 804.267h394.667c21.333 0 40.533 34.133 40.533 76.8s-17.067 78.933-40.533 78.933h-394.667c-21.333 0-40.533-34.133-40.533-76.8s19.2-78.933 40.533-78.933zM940.8 524.8h-394.667c-21.333 0-40.533-34.133-40.533-76.8s17.067-76.8 40.533-76.8h394.667c21.333 0 40.533 34.133 40.533 76.8-2.133 40.533-19.2 76.8-40.533 76.8zM940.8 307.2h-394.667c-21.333 0-40.533-34.133-40.533-76.8s17.067-76.8 40.533-76.8h394.667c21.333 0 40.533 34.133 40.533 76.8-2.133 44.8-19.2 76.8-40.533 76.8zM940.8 744.533h-394.667c-21.333 0-40.533-34.133-40.533-76.8s17.067-76.8 40.533-76.8h394.667c21.333 0 40.533 34.133 40.533 76.8-2.133 38.4-19.2 76.8-40.533 76.8zM433.067 957.867h-394.667c-21.333 0-40.533-34.133-40.533-76.8s17.067-76.8 40.533-76.8h394.667c21.333 0 40.533 34.133 40.533 76.8 0 44.8-19.2 76.8-40.533 76.8zM940.8 89.6h-394.667c-21.333 0-40.533-34.133-40.533-76.8s17.067-76.8 40.533-76.8h394.667c21.333 0 40.533 34.133 40.533 76.8-2.133 42.667-19.2 76.8-40.533 76.8z" />
<glyph unicode="&#xe91a;" glyph-name="live_casino" horiz-adv-x="1012" d="M71.131 305.022c-4.297-10.025 1.432-21.96 11.935-26.734 5.729-2.387 11.457-2.387 16.709-0.477-1.91-1.91-3.819-4.297-4.774-6.683-4.297-10.025 1.432-21.96 11.935-26.734 10.98-4.774 23.392 0 27.211 10.025 2.864 7.161 0.955 15.754-4.297 21.483 11.935-6.206 23.869-14.322 26.256-21.005l10.503 24.824c-6.206-3.342-20.050-0.477-32.94 3.342 7.638 0.477 14.322 4.774 17.186 11.935 4.297 10.025-1.432 21.96-11.935 26.734-10.98 4.774-23.392 0-27.211-10.025-0.955-2.387-1.432-4.774-1.432-7.638-2.387 4.774-6.206 9.070-11.935 11.457-10.98 4.297-22.915-0.477-27.211-10.503zM975.306 720.828l-166.131 0.477-87.84 213.87c-7.638 18.141-28.166 27.211-46.784 19.573l-463.545-190.001c-18.141-7.638-27.211-28.166-19.573-46.784l8.593-21.483-152.765-151.81c-13.844-13.844-14.322-36.759 0-50.603l36.282-36.759-76.86-183.795c-7.638-18.141 0.955-39.146 19.096-46.784l410.077-171.383-0.477-84.021c0-19.573 15.754-35.804 35.804-35.804l500.781-1.91c19.573 0 35.804 15.754 35.804 35.804l2.387 715.607c0.955 20.050-14.799 35.804-34.849 35.804zM64.448 511.254c-4.774 4.774-4.774 12.412 0 16.709l145.604 144.649 215.78-525.606-361.384 364.248zM436.811 81.604l-401.007 167.564c-6.206 2.387-9.070 9.548-6.206 15.754l73.041 174.724 334.172-336.559v-21.483zM438.721 686.933l-1.91-503.646-222.941 543.746c-2.387 6.206 0.477 12.89 6.683 15.754l463.545 190.001c6.206 2.387 12.89-0.477 15.754-6.683l84.021-204.8-308.871 0.955c-20.050 0.477-36.282-15.276-36.282-35.327zM984.854-30.105c0-6.683-5.251-11.935-11.935-11.935l-500.781 1.91c-6.683 0-11.935 5.251-11.935 11.935l2.387 715.607c0 6.683 5.251 11.935 11.935 11.935l500.781-1.91c6.683 0 11.935-5.251 11.935-11.935l-2.387-715.607zM729.928 472.586c0 0-23.392-55.377-74.95-109.322 0 0-48.694-53.468-48.694-100.729 0 0-0.477-73.041 65.402-74.95 0 0 31.030-2.387 47.739 22.915-2.864-23.869-10.503-54.9-31.030-63.493h81.156c-20.528 9.070-28.166 40.101-30.553 63.97 16.709-25.302 47.739-23.392 47.739-23.392 65.88 1.432 65.88 74.473 65.88 74.473 0 46.784-48.216 100.729-48.216 100.729-51.081 54.422-74.473 109.8-74.473 109.8zM539.45 666.883c0 0-7.161-16.709-22.437-32.94 0 0-14.799-16.231-14.799-30.076 0 0 0-21.96 19.573-22.437 0 0 9.548-0.477 14.322 6.683-0.955-7.161-3.342-16.709-9.548-19.096h24.824c-6.206 2.864-8.593 11.935-9.070 19.096 4.774-7.638 14.322-7.161 14.322-7.161 19.573 0.477 20.050 22.437 20.050 22.437 0 14.322-14.322 30.553-14.322 30.553-15.754 16.231-22.915 32.94-22.915 32.94zM927.090 77.307c0 0-9.548 0.955-14.322-6.683 0.955 7.161 3.342 16.709 9.548 19.096h-24.824c6.206-2.864 8.593-11.935 9.070-19.096-4.774 7.638-14.322 7.161-14.322 7.161-19.573-0.477-20.050-22.437-20.050-22.437 0-14.322 14.322-30.553 14.322-30.553 15.276-16.231 22.437-32.94 22.437-32.94s7.161 16.709 22.437 32.94c0 0 14.799 16.231 14.799 30.076 0.477 0 0.477 21.96-19.096 22.437zM261.609 684.546l54.9-30.553 17.663 60.151-54.9 30.553zM171.86 550.4c-20.050 20.528-36.759 6.206-36.759 6.206-8.593-8.593-4.774-21.005-4.774-21.005s-12.412 3.819-21.005-4.774c0 0-14.322-16.231 6.206-36.759 0 0 10.98-11.457 40.578-12.412 0 0 25.779 0 31.030-2.864-2.864 5.251-2.864 31.030-2.864 31.030-0.955 30.076-12.412 40.578-12.412 40.578z" />
<glyph unicode="&#xe91b;" glyph-name="phone" horiz-adv-x="552" d="M506.656 960h-466.038c-23.516-8.551-40.618-32.067-40.618-59.858v-900.008c0-36.342 27.791-64.134 64.134-64.134h423.282c36.342 0 64.134 27.791 64.134 64.134v900.008c-2.138 27.791-19.24 51.307-44.894 59.858zM303.566 891.591h145.37c4.276 0 4.276-12.827 4.276-23.516 0-14.965-4.276-23.516-4.276-23.516h-145.37c-4.276 0-4.276 12.827-4.276 23.516s0 23.516 4.276 23.516zM213.779 895.866c19.24 0 32.067-14.965 32.067-32.067 0-14.965-12.827-32.067-32.067-32.067s-32.067 14.965-32.067 32.067c0 21.378 14.965 32.067 32.067 32.067zM280.050-8.418c-23.516 0-47.031 19.24-47.031 42.756s19.24 42.756 47.031 42.756c23.516 0 42.756-19.24 42.756-42.756 0-21.378-19.24-42.756-42.756-42.756zM500.242 143.365h-453.211v643.474h453.211v-643.474z" />
<glyph unicode="&#xe91c;" glyph-name="clock" d="M512-64c283.733 0 512 230.4 512 512 0 283.733-230.4 512-512 512s-512-228.267-512-512c0-281.6 228.267-512 512-512zM512 887.467c243.2 0 439.467-196.267 439.467-439.467s-196.267-439.467-439.467-439.467-439.467 196.267-439.467 439.467 196.267 439.467 439.467 439.467zM488.533 388.267h170.667c21.333 0 36.267 14.933 36.267 36.267s-14.933 36.267-36.267 36.267h-134.4v211.2c0 21.333-14.933 36.267-36.267 36.267s-36.267-14.933-36.267-36.267v-247.467c0-21.333 14.933-36.267 36.267-36.267z" />
<glyph unicode="&#xe91d;" glyph-name="contact" horiz-adv-x="1376" d="M1285.332 960.004h-1194.664c-48.355 0-85.336-36.981-85.336-85.336v-853.336c0-48.355 36.981-85.336 85.336-85.336h1194.664c48.355 0 85.336 36.981 85.336 85.336v853.336c0 48.355-36.981 85.336-85.336 85.336v0zM90.66 632.895l327.109-221.864-327.109-329.955v551.819zM150.396 21.34l338.491 338.491 199.109-133.691 196.264 136.536 338.491-341.336h-1072.355zM1285.332 81.068l-329.955 329.955 329.955 227.555v-557.509zM1285.332 738.14v0l-597.336-409.6-597.336 406.755v139.381h1194.664v-136.536z" />
<glyph unicode="&#xe91e;" glyph-name="edit" horiz-adv-x="1022" d="M676.918 283.082l-56.051 172.463-329.836 327.68-114.257-114.257 327.68-327.68 172.463-58.206zM137.971 936.286c-30.181 32.337-81.92 32.337-114.257 0s-32.337-84.076 0-114.257l84.076-86.232 116.413 116.413-86.232 84.076zM957.171 768.135h-452.716l64.674-64.674h388.042v-702.787h-702.787v388.042l-64.674 64.674v-452.716c0-34.493 28.025-64.674 64.674-64.674h702.787c34.493 0 64.674 28.025 64.674 64.674v704.943c0 34.493-28.025 62.518-64.674 62.518v0z" />
<glyph unicode="&#xe91f;" glyph-name="profile" horiz-adv-x="1632" d="M1508.882-68.267h-1385.764c-64.533 0-118.875 54.341-118.875 118.875v794.784c0 64.533 54.341 118.875 118.875 118.875h1385.764c64.533 0 118.875-54.341 118.875-118.875v-794.784c0-64.533-50.948-118.875-118.875-118.875zM123.118 886.135c-23.777 0-40.756-16.979-40.756-40.756v-794.784c0-23.777 16.979-40.756 40.756-40.756h1385.764c23.777 0 40.756 16.979 40.756 40.756v794.784c0 23.777-16.979 40.756-40.756 40.756 0 0-1385.764 0-1385.764 0zM1413.784 607.63h-624.949c-20.384 0-40.756 16.979-40.756 40.756 0 20.384 16.979 40.756 40.756 40.756h621.556c20.384 0 40.756-16.979 40.756-40.756 3.393-20.384-16.979-40.756-37.363-40.756zM1413.784 403.838h-624.949c-20.384 0-40.756 16.979-40.756 40.756s16.979 40.756 40.756 40.756h621.556c20.384 0 40.756-16.979 40.756-40.756s-16.979-40.756-37.363-40.756zM1413.784 200.046h-624.949c-20.384 0-40.756 16.979-40.756 40.756s16.979 40.756 40.756 40.756h621.556c20.384 0 40.756-16.979 40.756-40.756s-16.979-40.756-37.363-40.756zM214.822 230.622c0-122.268 373.615-122.268 373.615 0s-67.927 224.164-190.207 224.164-183.408-98.503-183.408-224.164zM520.51 617.822c0-67.531-54.749-122.268-122.268-122.268s-122.268 54.749-122.268 122.268c0 67.531 54.749 122.268 122.268 122.268s122.268-54.749 122.268-122.268z" />
<glyph unicode="&#xe920;" glyph-name="self-exclusion" d="M512 960c-281.6 0-512-230.4-512-512s230.4-512 512-512c281.6 0 512 230.4 512 512s-230.4 512-512 512v0zM102.4 448c0 226.133 183.467 409.6 409.6 409.6 91.733 0 179.2-29.867 251.733-87.467l-573.867-573.867c-57.6 72.533-87.467 160-87.467 251.733v0zM512 38.4c-91.733 0-179.2 29.867-251.733 87.467l573.867 573.867c55.467-72.533 87.467-157.867 87.467-251.733 0-226.133-183.467-409.6-409.6-409.6v0z" />
<glyph unicode="&#xe921;" glyph-name="verified" d="M422.4 345.6l-102.4 102.4-64-64 166.4-160 345.6 384-64 64-281.6-326.4zM512 960c-283.733 0-512-228.267-512-512s228.267-512 512-512 512 228.267 512 512-228.267 512-512 512v0zM512 14.933c-238.933 0-433.067 194.133-433.067 433.067s194.133 433.067 433.067 433.067 433.067-194.133 433.067-433.067-194.133-433.067-433.067-433.067v0z" />
<glyph unicode="&#xe922;" glyph-name="search" d="M998.4 98.133l-187.733 187.733c42.667 68.267 68.267 149.333 68.267 234.667 0 243.2-196.267 439.467-439.467 439.467s-439.467-196.267-439.467-439.467 196.267-439.467 439.467-439.467c85.333 0 166.4 23.467 232.533 66.133l187.733-187.733c29.867-29.867 78.933-29.867 108.8 0l29.867 29.867c32 29.867 32 78.933 0 108.8zM437.333 202.667c-174.933 0-317.867 142.933-317.867 317.867s142.933 317.867 317.867 317.867 317.867-142.933 317.867-317.867c2.133-177.067-140.8-317.867-317.867-317.867z" />
<glyph unicode="&#xe923;" glyph-name="select_list" horiz-adv-x="1007" d="M953.6-64h-209.067c-29.867 0-53.333 23.467-53.333 53.333v213.333c0 29.867 23.467 53.333 53.333 53.333h209.067c29.867 0 53.333-23.467 53.333-53.333v-213.333c-2.133-29.867-25.6-53.333-53.333-53.333zM953.6 279.467h-209.067c-29.867 0-53.333 23.467-53.333 53.333v213.333c0 29.867 23.467 53.333 53.333 53.333h209.067c29.867 0 53.333-23.467 53.333-53.333v-213.333c-2.133-29.867-25.6-53.333-53.333-53.333zM953.6 640h-209.067c-29.867 0-53.333 23.467-53.333 53.333v213.333c0 29.867 23.467 53.333 53.333 53.333h209.067c29.867 0 53.333-23.467 53.333-53.333v-213.333c-2.133-27.733-25.6-53.333-53.333-53.333zM608-64h-209.067c-29.867 0-53.333 23.467-53.333 53.333v213.333c0 29.867 23.467 53.333 53.333 53.333h209.067c29.867 0 53.333-23.467 53.333-53.333v-213.333c-2.133-29.867-25.6-53.333-53.333-53.333zM608 279.467h-209.067c-29.867 0-53.333 23.467-53.333 53.333v213.333c0 29.867 23.467 53.333 53.333 53.333h209.067c29.867 0 53.333-23.467 53.333-53.333v-213.333c-2.133-29.867-25.6-53.333-53.333-53.333zM608 640h-209.067c-29.867 0-53.333 23.467-53.333 53.333v213.333c0 29.867 23.467 53.333 53.333 53.333h209.067c29.867 0 53.333-23.467 53.333-53.333v-213.333c-2.133-27.733-25.6-53.333-53.333-53.333zM262.4-64h-209.067c-29.867 0-53.333 23.467-53.333 53.333v213.333c0 29.867 23.467 53.333 53.333 53.333h209.067c29.867 0 53.333-23.467 53.333-53.333v-213.333c-2.133-29.867-25.6-53.333-53.333-53.333zM262.4 279.467h-209.067c-29.867 0-53.333 23.467-53.333 53.333v213.333c0 29.867 23.467 53.333 53.333 53.333h209.067c29.867 0 53.333-23.467 53.333-53.333v-213.333c-2.133-29.867-25.6-53.333-53.333-53.333zM262.4 640h-209.067c-29.867 0-53.333 23.467-53.333 53.333v213.333c0 29.867 23.467 53.333 53.333 53.333h209.067c29.867 0 53.333-23.467 53.333-53.333v-213.333c-2.133-27.733-25.6-53.333-53.333-53.333z" />
<glyph unicode="&#xe924;" glyph-name="close-circle-button" d="M694.945 630.945c-12.608 12.608-33.024 12.608-45.6 0l-137.505-137.504-135.585 135.583c-12.512 12.512-32.768 12.512-45.247 0-12.512-12.512-12.512-32.768 0-45.247l135.585-135.585-136.512-136.512c-12.608-12.608-12.608-33.022 0-45.6s33.024-12.577 45.6 0l136.513 136.512 135.583-135.583c12.512-12.512 32.768-12.512 45.248 0 12.512 12.512 12.512 32.768 0 45.248l-135.585 135.583 137.505 137.504c12.606 12.576 12.606 33.022-0.002 45.6zM512 960c-282.785 0-512-229.215-512-512s229.215-512 512-512c282.751 0 512 229.249 512 512s-229.215 512-512 512zM512 0c-247.425 0-448 200.575-448 448s200.575 448 448 448c247.425 0 448-200.575 448-448s-200.575-448-448-448z" />
<glyph unicode="&#xe925;" glyph-name="tick-circle-button" d="M511.99 960c-282.324 0-511.99-229.683-511.99-512s229.665-512 511.99-512 512.010 229.683 512.010 512-229.686 512-512.010 512zM511.99 3.149c-245.289 0-444.841 199.562-444.841 444.851 0 245.292 199.549 444.849 444.841 444.849s444.854-199.56 444.854-444.849c0.003-245.289-199.565-444.851-444.854-444.851zM697.359 615.613l-264.015-264.003-106.724 106.701c-13.115 13.1-34.36 13.107-47.475-0.008-13.12-13.12-13.12-34.368 0-47.483l130.465-130.445c6.556-6.548 15.145-9.825 23.734-9.825s17.201 3.277 23.754 9.836c0.020 0.028 0.036 0.056 0.069 0.090l287.665 287.662c13.12 13.107 13.12 34.371 0 47.478-13.112 13.115-34.373 13.115-47.473-0.003z" />
<glyph unicode="&#xe926;" glyph-name="acc-setting" horiz-adv-x="928" d="M85.333-66.133h759.467c46.933 0 83.2 38.4 83.2 83.2v454.4c0 46.933-38.4 83.2-83.2 83.2h-59.733v81.067c2.133 177.067-142.933 322.133-320 322.133s-322.133-145.067-322.133-322.133v-81.067h-57.6c-46.933 0-83.2-38.4-83.2-83.2v-454.4c0-44.8 36.267-83.2 83.2-83.2v0zM200.533 635.733c0 145.067 119.467 264.533 264.533 264.533s264.533-119.467 264.533-264.533v-81.067h-529.067v81.067zM57.6 471.467c0 14.933 12.8 25.6 25.6 25.6h759.467c14.933 0 25.6-12.8 25.6-25.6v-454.4c0-14.933-12.8-25.6-25.6-25.6h-757.333c-14.933 0-25.6 12.8-25.6 25.6l-2.133 454.4zM465.067 128c64 0 117.333 53.333 117.333 117.333s-53.333 117.333-117.333 117.333-117.333-53.333-117.333-117.333 53.333-117.333 117.333-117.333v0zM465.067 302.933c32 0 59.733-25.6 59.733-59.733 0-32-25.6-59.733-59.733-59.733-32 0-59.733 25.6-59.733 59.733s27.733 59.733 59.733 59.733v0z" />
<glyph unicode="&#xe927;" glyph-name="bet-record" horiz-adv-x="862" d="M797.867 896v-896h-733.867v896h733.867zM861.867 960h-861.867v-1024h861.867v1024zM364.8 718.933h125.867v-590.933h-125.867v590.933zM164.267 401.067h125.867v-275.2h-125.867v275.2zM563.2 584.533h125.867v-456.533h-125.867v456.533z" />
<glyph unicode="&#xe928;" glyph-name="slot" horiz-adv-x="1270" d="M156.753 314.37c12.012 0 18.018 0.601 19.819 2.402 1.201 1.802 3.003 4.204 4.805 7.808 3.604 7.207 8.408 10.811 15.015 10.811h84.082l-31.831-46.846c-15.015-21.621-27.026-44.443-34.834-68.467-8.408-23.423-12.012-42.642-12.012-55.855 0-4.204-0.601-7.808-1.201-9.609s-2.402-3.003-4.805-4.204c-3.604-1.201-6.006-2.402-6.606-4.204-0.601-1.201-1.201-4.204-1.201-9.009 0-4.204 0.601-7.207 1.201-7.808 1.201-0.601 3.003-1.201 6.606-1.201h85.283c3.604 0 6.006 0.601 6.606 1.201s0.601 4.204 0.601 10.21c0 4.805-1.201 7.808-4.204 9.009-4.204 1.802-7.207 4.204-8.408 7.207s-2.402 12.012-2.402 28.228c0 38.438 6.006 73.872 18.618 106.304s23.423 55.855 32.432 70.869c3.604 6.006 5.405 10.21 5.405 13.213v6.606c0 1.802-0.601 3.003-1.201 3.003-0.601 0.601-2.402 0.601-5.405 0.601h-153.75c-6.006 0-9.609-0.601-10.811-1.802s-2.402-3.604-3.003-8.408l-6.006-54.053v-1.802c1.201-3.003 3.003-4.204 7.207-4.204zM547.134 314.37c12.012 0 18.018 0.601 19.819 2.402 1.201 1.802 3.003 4.204 4.805 7.808 3.604 7.207 8.408 10.811 15.015 10.811h84.082l-31.831-46.846c-15.015-21.621-27.026-44.443-34.834-68.467-8.408-23.423-12.012-42.642-12.012-55.855 0-4.204-0.601-7.808-1.201-9.609s-2.402-3.003-4.805-4.204c-3.604-1.201-6.006-2.402-6.606-4.204-0.601-1.201-1.201-4.204-1.201-9.009 0-4.204 0.601-7.207 1.201-7.808 1.201-0.601 3.003-1.201 6.606-1.201h85.283c3.604 0 6.006 0.601 6.606 1.201s0.601 4.204 0.601 10.21c0 4.805-1.201 7.808-4.204 9.009-4.204 1.802-7.207 4.204-8.408 7.207s-2.402 12.012-2.402 28.228c0 38.438 6.006 73.872 18.618 106.304s23.423 55.855 32.432 70.869c3.604 6.006 5.405 10.21 5.405 13.213v6.606c0 1.802-0.601 3.003-1.201 3.003-0.601 0.601-2.402 0.601-5.405 0.601h-153.75c-6.006 0-9.609-0.601-10.811-1.802s-2.402-3.604-3.003-8.408l-6.006-54.053v-1.802c0.601-3.003 3.003-4.204 7.207-4.204zM950.128 314.37c12.012 0 18.018 0.601 19.819 2.402 1.201 1.802 3.003 4.204 4.805 7.808 3.604 7.207 8.408 10.811 15.015 10.811h84.082l-31.831-46.846c-15.015-21.621-27.026-44.443-34.834-68.467-8.408-23.423-12.012-42.642-12.012-55.855 0-4.204-0.601-7.808-1.201-9.609s-2.402-3.003-4.805-4.204c-3.604-1.201-6.006-2.402-6.606-4.204-0.601-1.201-1.201-4.204-1.201-9.009 0-4.204 0.601-7.207 1.201-7.808 1.201-0.601 3.003-1.201 6.606-1.201h85.283c3.604 0 6.006 0.601 6.606 1.201s0.601 4.204 0.601 10.21c0 4.805-1.201 7.808-4.204 9.009-4.204 1.802-7.207 4.204-8.408 7.207s-2.402 12.012-2.402 28.228c0 38.438 6.006 73.872 18.618 106.304s23.423 55.855 32.432 70.869c3.604 6.006 5.405 10.21 5.405 13.213v6.606c0 1.802-0.601 3.003-1.201 3.003-0.601 0.601-2.402 0.601-5.405 0.601h-152.549c-6.006 0-9.609-0.601-10.811-1.802s-2.402-3.604-3.003-8.408l-6.006-54.053v-1.802c0-3.003 1.802-4.204 6.006-4.204zM1232.404 657.304h-269.663l-1.201 8.408 60.659 59.458-84.082 12.012-37.837 76.274-37.837-76.274-84.082-12.012 60.659-59.458-1.201-8.408h-91.289l-9.009 53.452 101.499 99.097-140.537 20.42-62.461 127.324-63.062-127.324-140.537-20.42 101.499-99.097-9.009-53.452h-91.289l-1.201 8.408 60.659 59.458-84.082 12.012-37.837 76.274-37.837-76.274-84.082-12.012 60.659-59.458-1.201-8.408h-269.663c-19.219 0-34.834-15.615-34.834-34.834v-653.438c0-19.219 15.615-34.834 34.834-34.834h1192.765c19.219 0 34.834 15.615 34.834 34.834v652.838c0.601 19.819-15.015 35.435-34.233 35.435zM402.393-31.568h-327.92v34.834h327.92v-34.834zM402.393 38.7h-327.92v442.032h327.92v-442.032zM402.393 515.566h-327.92v40.84h327.92v-40.84zM371.763 648.296l-43.843-22.822 8.408 48.648-35.435 34.233 48.648 7.207 21.621 44.443 21.621-44.443 48.648-7.207-35.435-34.233 8.408-48.648-42.642 22.822zM518.306 781.626l81.68 12.012 36.636 73.872 36.636-73.872 81.68-12.012-58.857-57.656 13.813-81.079-72.671 38.438-72.671-38.438 13.813 81.079-60.059 57.656zM799.981-31.568h-327.92v34.834h327.92v-34.834zM799.981 38.7h-327.92v442.032h327.92v-442.032zM799.981 515.566h-327.92v40.84h327.92v-40.84zM830.011 708.354l48.648 7.207 21.621 44.443 21.621-44.443 48.648-7.207-35.435-34.233 8.408-48.648-43.843 22.822-43.843-22.822 8.408 48.648-34.233 34.233zM1197.57-31.568h-327.92v34.834h327.92v-34.834zM1197.57 38.7h-327.92v442.032h327.92v-442.032zM1197.57 515.566h-327.92v40.84h327.92v-40.84z" />
<glyph unicode="&#xe929;" glyph-name="history" horiz-adv-x="960" d="M933.2 791.8c-14.4 14.4-31.6 21.6-51.4 21.6h-73v54.8c0 25.2-9 46.6-26.8 64.6-18 17.8-39.4 26.8-64.6 26.8h-36.6c-25.2 0-46.6-9-64.6-26.8-17.8-17.8-26.8-39.4-26.8-64.6v-54.8h-219.2v54.8c0 25.2-9 46.6-26.8 64.6-17.8 17.8-39.4 26.8-64.6 26.8h-36.6c-25.2 0-46.6-9-64.6-26.8-17.8-17.8-26.8-39.4-26.8-64.6v-54.8h-73c-19.8 0-37-7.2-51.4-21.6-14.4-14.6-21.6-31.6-21.6-51.4v-731c0-19.8 7.2-37 21.8-51.4 14.4-14.4 31.6-21.6 51.4-21.6h804c19.8 0 37 7.2 51.4 21.6s21.8 31.6 21.8 51.4v731c-0.2 19.8-7.4 36.8-22 51.4zM662.6 868.2c0 5.4 1.6 9.8 5.2 13.2 3.4 3.4 7.8 5.2 13.2 5.2h36.6c5.4 0 9.8-1.8 13.2-5.2s5.2-7.8 5.2-13.2v-164.4c0-5.4-1.8-9.8-5.2-13.2s-7.8-5.2-13.2-5.2h-36.8c-5.4 0-9.8 1.8-13.2 5.2s-5.2 7.8-5.2 13.2v164.4zM224 868.2c0 5.4 1.8 9.8 5.2 13.2s7.8 5.2 13.2 5.2h36.4c5.4 0 9.8-1.8 13.2-5.2s5.2-7.8 5.2-13.2v-164.4c0-5.4-1.8-9.8-5.2-13.2s-7.8-5.2-13.2-5.2h-36.6c-5.4 0-9.8 1.8-13.2 5.2s-5.2 7.8-5.2 13.2v164.4zM881.8 9.4h-804v584.8h804v-584.8z" />
<glyph unicode="&#xe92a;" glyph-name="fun88_arrow_down_triangle" horiz-adv-x="2064" d="M5.856 958.933l1026.144-1021.866 1026.144 1021.866z" />
<glyph unicode="&#xe92b;" glyph-name="fun88_arrow_up_triangle" horiz-adv-x="2048" d="M0-60.795l1026.144 1021.867 1026.144-1021.867z" />
<glyph unicode="&#xe92c;" glyph-name="stat" d="M180.2 590c2.6 0 5.4 0.8 8 2.6l235.2 179.4 184.8-98.2c4.4-1.8 10.8-0.8 14.4 1.8l196 140.4c6.2 4.4 7.2 14.4 2.6 20.6-4.4 6.2-14.4 7.2-20.6 2.6l-189.6-136-184 98.2c-4.4 1.8-9.8 0.8-13.4-1.8l-241.6-183.4c-6.2-4.4-8-13.4-3.6-19.8 2.8-4.6 7.2-6.4 11.8-6.4zM970.2 25.2h-66.6v676.4c0 8-6.2 14.4-14.4 14.4h-132.2c-8 0-14.4-6.2-14.4-14.4v-676.4h-48.6v492.4c0 8-6.2 14.4-14.4 14.4h-133c-8 0-14.4-6.2-14.4-14.4v-492.4h-48.6v554c0 8-6.2 14.4-14.4 14.4h-132.2c-8 0-14.4-6.2-14.4-14.4v-554h-48.6v289.6c0 8-6.2 14.4-14.4 14.4h-133c-8 0-14.4-6.2-14.4-14.4v-289.6h-67.4c-8 0-14.4-6.2-14.4-14.4 0-8 6.2-14.4 14.4-14.4h924.8c8 0 14.4 6.2 14.4 14.4 0.4 8.2-5.8 14.4-13.8 14.4zM771.4 687.2h103.4v-662h-103.4v662zM561 503.2h103.4v-478h-103.4v478zM351.4 564.8h103.4v-539.6h-103.4v539.6zM141 300.4h103.4v-275.2h-103.4v275.2z" />
<glyph unicode="&#xe92d;" glyph-name="my-account" d="M1002.266 517.799h-26.122v176.379c0 41.378-32.601 73.979-71.889 73.979h-19.644v117.864c0 41.378-30.511 73.979-67.5 73.979 0 0-2.090 0-4.389 0l-745.221-191.634c-0.209 0-0.627-0.209-0.836-0.209-36.78-2.926-66.664-34.482-66.664-73.979v-684.199c0-41.378 32.601-73.979 71.889-73.979h832.366c41.378 0 73.979 32.601 73.979 73.979v180.976h24.033c13.166 0 21.734 8.777 21.734 21.734v283.167c0 13.166-10.867 21.943-21.734 21.943zM821.29 918.622c10.867-2.090 21.734-15.256 21.734-32.601v-117.656h-601.234l579.5 150.256zM934.766 9.979c0-17.345-13.166-32.601-30.511-32.601h-832.366c-17.345 0-30.511 15.256-30.511 32.601v684.199c0 17.345 13.166 32.601 30.511 32.601h830.067c17.345 0 30.511-15.256 30.511-32.601v-176.379h-215.667c-91.533 0-163.422-71.889-163.422-163.422s73.979-163.422 163.422-163.422h217.966v-180.976zM980.323 232.333h-263.523c-65.411 0-119.745 54.544-119.745 119.745s54.544 119.745 119.745 119.745h263.523v-239.491zM692.767 349.989c0-13.166 10.867-21.734 21.734-21.734h19.644c10.867 0 21.734 8.777 21.734 21.734 0 13.166-10.867 21.734-21.734 21.734h-19.435c-13.166 0-21.943-8.777-21.943-21.734z" />
<glyph unicode="&#xe92e;" glyph-name="fun88_wallet_reload" d="M234.475 757.081c151.092 136.673 377.208 138.762 530.39 14.002l-121.417-4.598c-15.673-0.627-27.794-13.584-27.167-29.257 0.627-15.256 13.166-27.167 28.212-27.167 0.418 0 0.627 0 1.045 0l186.41 6.896c15.256 0.627 27.167 12.957 27.167 28.212v2.090c0 0.418 0 0.627 0 1.045v0.209l-6.896 184.32c-0.627 15.673-13.793 27.794-29.257 27.167-15.673-0.627-27.794-13.584-27.167-29.257l4.389-115.566c-75.86 62.067-169.273 98.011-269.166 103.027-123.716 6.269-242.625-36.153-334.367-119.327-126.224-114.312-179.722-288.183-139.598-453.695 3.135-12.957 14.629-21.525 27.376-21.525 2.299 0 4.389 0.209 6.687 0.836 15.047 3.762 24.451 19.017 20.689 34.064-35.109 145.45 11.703 298.214 122.671 398.524zM966.531 551.445c-3.762 15.047-19.017 24.451-34.064 20.689s-24.451-19.017-20.689-34.064c35.318-145.45-11.703-298.214-122.671-398.524-77.949-70.426-175.752-105.117-273.136-105.117-92.996 0-185.783 31.556-260.598 93.832l122.88 11.076c15.464 1.463 26.958 15.047 25.496 30.72s-15.047 26.958-30.72 25.496l-185.783-16.718c-15.464-1.463-26.958-15.047-25.496-30.72l16.718-185.783c1.254-14.629 13.584-25.704 28.003-25.704 0.836 0 1.672 0 2.508 0.209 15.464 1.463 26.958 15.047 25.496 30.72l-10.031 113.058c75.86-61.44 168.856-97.176 268.121-102.191 7.941-0.418 15.882-0.627 23.615-0.627 115.148 0 224.653 42.214 310.753 119.954 126.224 114.312 179.722 287.974 139.598 453.695z" />
<glyph unicode="&#xe92f;" glyph-name="bullet_dots_horizontal" horiz-adv-x="4170" d="M1024 448c0-282.77-229.23-512-512-512s-512 229.23-512 512c0 282.77 229.23 512 512 512s512-229.23 512-512zM2595.967 448c0-282.77-229.23-512-512-512s-512 229.23-512 512c0 282.77 229.23 512 512 512s512-229.23 512-512zM4170.050 448c0-282.77-229.23-512-512-512s-512 229.23-512 512c0 282.77 229.23 512 512 512s512-229.23 512-512z" />
<glyph unicode="&#xe930;" glyph-name="fun88_wallet_refresh" d="M665.6 83.2c-76.8-36.267-155.733-44.8-238.933-27.733-189.867 36.267-320 198.4-324.267 386.133-6.4 181.333 117.333 347.733 305.067 394.667 168.533 42.667 337.067-32 422.4-162.133-51.2-34.133-100.267-70.4-153.6-104.533 100.267-17.067 196.267-36.267 294.4-53.333 17.067 98.133 34.133 196.267 53.333 294.4-38.4-27.733-74.667-53.333-108.8-76.8-27.733 29.867-51.2 59.733-78.933 85.333-53.333 49.067-115.2 85.333-185.6 106.667-8.533 2.133-17.067 6.4-27.733 8.533-21.333 4.267-42.667 8.533-66.133 12.8-8.533 0-17.067 0-27.733 2.133-76.8 4.267-151.467-10.667-221.867-40.533-198.4-81.067-320-281.6-305.067-494.933 19.2-275.2 258.133-484.267 535.467-465.067 100.267 6.4 192 42.667 273.067 104.533 78.933 61.867 134.4 138.667 166.4 234.667 4.267 12.8 8.533 25.6 12.8 40.533 2.133 10.667 4.267 21.333 6.4 32-32 6.4-64 10.667-98.133 17.067-32-136.533-106.667-236.8-232.533-294.4z" />
<glyph unicode="&#xe931;" glyph-name="fun88_bank" d="M512 960c-283.733 0-512-228.267-512-512s228.267-512 512-512 512 228.267 512 512-228.267 512-512 512zM512 14.933c-238.933 0-433.067 194.133-433.067 433.067s194.133 433.067 433.067 433.067 433.067-194.133 433.067-433.067-194.133-433.067-433.067-433.067zM544 497.067v155.733c53.333-4.267 74.667-27.733 91.733-27.733 23.467 0 34.133 29.867 34.133 44.8 0 38.4-74.667 53.333-125.867 55.467v21.333c0 8.533-10.667 17.067-23.467 17.067s-21.333-8.533-21.333-17.067v-21.333c-72.533-8.533-145.067-46.933-145.067-142.933 0-98.133 76.8-125.867 145.067-151.467v-181.333c-78.933 6.4-98.133 59.733-123.733 59.733-19.2 0-36.267-25.6-36.267-44.8 0-38.4 64-89.6 160-91.733v-23.467c0-8.533 8.533-17.067 21.333-17.067 10.667 0 23.467 8.533 23.467 17.067v25.6c83.2 10.667 140.8 64 140.8 157.867 0 106.667-72.533 140.8-140.8 164.267zM503.467 512c-40.533 14.933-74.667 32-74.667 74.667 0 40.533 29.867 59.733 74.667 64v-138.667zM539.733 249.6v162.133c38.4-17.067 68.267-38.4 68.267-85.333 0-42.667-25.6-68.267-68.267-76.8z" />
<glyph unicode="&#xe932;" glyph-name="fun88_bank_deposit" d="M511.775 209.067l341.333 341.333h-204.8v409.6h-273.067l1.123-409.6h-205.923zM784.842 209.067v-136.533h-546.133v136.533h-136.533v-273.067h819.2v273.067z" />
<glyph unicode="&#xe933;" glyph-name="fun88_bank_transfer" horiz-adv-x="1808" d="M1786.512 650.82l-285.779 286.487c-24.832 24.832-65.254 24.832-90.062 0s-24.832-65.254 0-90.062l177.277-177.277h-865.127c-35.448 0-63.818-28.368-63.818-63.818s28.368-63.818 63.818-63.818h865.127l-177.277-177.277c-24.832-24.832-24.832-65.254 0-90.062 12.761-12.761 29.076-18.44 45.396-18.44s32.617 6.388 45.396 18.44l285.779 285.779c24.105 24.832 24.105 65.254-0.708 90.062zM1086.611 347.324h-865.127l177.277 177.277c24.832 24.832 24.832 65.254 0 90.062s-65.254 24.832-90.062 0l-287.196-286.487c-24.832-24.832-24.832-65.254 0-90.062l286.487-285.779c12.761-12.761 29.076-18.44 45.396-18.44s32.617 6.388 45.396 18.44c24.832 24.832 24.832 65.254 0 90.062l-177.277 177.277h865.127c35.448 0 63.818 28.368 63.818 63.818s-29.076 63.818-63.818 63.818z" />
<glyph unicode="&#xe934;" glyph-name="fun88_bank_withdrawal" horiz-adv-x="832" d="M279.466 209.174h273.067l-1.503 409.385h206.088l-341.119 341.119-341.119-341.119h204.585zM688.851 209.174v-136.533h-545.704v136.533h-136.533v-272.852h818.771v272.852z" />
<glyph unicode="&#xe935;" glyph-name="download_cloud" horiz-adv-x="1324" d="M1040.896 37.376h-79.36c-19.456 0-35.328 15.872-35.328 35.328s15.872 35.328 35.328 35.328h79.36c116.736 0 211.968 95.232 211.968 211.968 0 115.2-93.696 209.92-208.896 211.456-18.944 0-34.304 15.36-34.816 34.304-4.096 178.688-153.088 323.584-331.776 323.584-146.944 0-274.432-94.208-317.44-234.496-4.608-14.848-17.92-24.576-33.28-25.088-141.312-2.56-256.512-119.296-256.512-261.12 0-143.872 117.248-261.12 261.12-261.12h55.808c19.456 0 35.328-15.872 35.328-35.328s-15.872-35.328-35.328-35.328h-55.296c-182.784 0-331.776 148.992-331.776 331.776 0 171.52 132.608 314.368 301.056 330.24 58.88 157.184 206.848 260.608 376.832 260.608 205.824 0 378.88-158.72 399.872-360.448 138.24-17.92 245.76-137.216 245.76-280.064-0.512-154.624-126.976-281.6-282.624-281.6zM608.256 217.6c0-15.872 12.8-28.672 28.672-28.672h75.776c15.872 0 28.672 12.8 28.672 28.672v308.736c0 15.872-12.8 28.672-28.672 28.672h-76.288c-15.872 0-28.672-12.8-28.672-28.672v-308.736zM444.928 260.096c-17.408 0-22.528-11.264-12.288-24.576l222.72-288.768c10.752-13.824 27.648-13.824 38.4 0l222.72 288.768c10.752 13.824 5.12 24.576-12.288 24.576h-459.264z" />
<glyph unicode="&#xe936;" glyph-name="profile_logout" horiz-adv-x="1035" d="M68.608 842.752c195.072 0 390.144 0 585.216 0 75.264 0 75.264 117.248 0 117.248-195.072 0-390.144 0-585.216 0-75.264 0-75.264-117.248 0-117.248v0zM68.608-64c195.072 0 390.144 0 585.216 0 75.264 0 75.264 117.248 0 117.248-195.072 0-390.144 0-585.216 0-75.264-0.512-75.264-117.248 0-117.248v0zM117.248-5.632c0 299.52 0 599.552 0 899.072 0 75.264-117.248 75.264-117.248 0 0-299.52 0-599.552 0-899.072 0-75.264 117.248-75.776 117.248 0v0zM263.68 559.104h585.216v-222.72h-585.216v222.72zM741.376 741.376l293.376-293.376-293.376-293.888z" />
<glyph unicode="&#xe937;" glyph-name="help_center" d="M506.435 953.322c-279.374-3.339-503.096-232.626-498.643-512 3.339-279.374 232.626-501.983 512-498.643s501.983 232.626 498.643 512c-3.339 279.374-232.626 503.096-512 498.643zM563.2 166.4h-130.226v99.061h130.226v-99.061zM683.409 473.6c-10.017-14.47-32.278-32.278-60.104-54.539l-31.165-21.148c-16.696-13.357-26.713-25.6-31.165-37.843-2.226-8.904-4.452-12.243-4.452-31.165v-4.452h-117.983v10.017c1.113 41.183 2.226 64.557 18.922 84.591 26.713 31.165 85.704 69.009 87.93 71.235 8.904 6.678 15.583 13.357 21.148 21.148 12.243 16.696 17.809 30.052 17.809 43.409 0 17.809-5.565 35.617-16.696 50.087-10.017 14.47-30.052 22.261-57.878 22.261s-47.861-8.904-58.991-26.713c-12.243-18.922-17.809-38.957-17.809-58.991v-5.565h-120.209v5.565c3.339 74.574 30.052 128 79.026 159.165 31.165 20.035 69.009 30.052 114.643 30.052 58.991 0 107.965-14.47 146.922-42.296 40.070-28.939 60.104-71.235 60.104-126.887 0-32.278-10.017-61.217-30.052-87.93z" />
<glyph unicode="&#xe938;" glyph-name="livechat_II" horiz-adv-x="830" d="M782.336 691.2l13.824 37.376c5.632 15.36 3.072 32.768-7.168 46.080-13.312 17.92-28.16 34.816-44.544 50.688-88.064 87.040-204.8 134.656-329.216 134.656s-241.152-47.616-329.216-134.656c-16.384-15.872-31.232-32.768-44.544-50.688-10.24-13.312-12.8-30.72-7.168-46.080l13.824-37.376c-31.232-58.368-48.128-123.904-48.128-192 0-105.472 19.456-158.208 66.56-284.16v0c1.536-4.096 5.632-6.656 9.728-6.656h30.72l20.992-57.344c6.656-18.944 25.088-31.232 45.056-31.232h54.784l-106.496 292.864-48.64-17.408c-9.216-3.584-15.872-10.752-18.944-19.456-9.728 39.424-14.336 75.776-14.336 124.416 0 98.816 38.912 192 110.080 262.144s165.376 108.544 266.24 108.544c100.352 0 195.072-38.4 266.24-108.544s110.080-163.328 110.080-262.144c0-48.64-4.608-84.992-14.336-124.416-3.072 8.704-9.728 15.872-18.944 19.456l-48.64 17.408-106.496-292.864h54.784c19.968 0 37.888 12.8 45.056 31.232l20.992 57.344h30.72c4.608 0 8.192 2.56 9.728 6.656 47.104 126.464 66.56 178.688 66.56 284.16-1.024 68.096-17.408 133.632-49.152 192zM643.584 436.224c-20.48 7.68-43.008-3.072-50.688-23.552l-78.848-217.088c-6.144-17.408-3.584-36.864 6.656-51.712 10.752-15.36 27.648-24.064 46.080-24.064h9.216l109.568 301.056-41.984 15.36zM237.056 412.672c-7.68 20.48-30.208 31.232-50.688 23.552l-42.496-15.36 109.568-301.056h9.216c18.432 0 35.84 9.216 46.080 24.064 10.752 15.36 13.312 34.304 6.656 51.712l-78.336 217.088zM697.233 16.318l-24.381 7.8 66.771 208.705 24.381-7.8-66.771-208.705zM552.854-26.012l-6.749 25.753 142.634 37.38 6.749-25.753-142.634-37.38zM566.147-13.546c4.216-17.889-20.031-38.912-54.158-46.956s-65.211-0.062-69.427 17.827c-4.216 17.889 20.031 38.912 54.158 46.956s65.211 0.062 69.427-17.827z" />
<glyph unicode="&#xe939;" glyph-name="bank_status" horiz-adv-x="585" d="M339.968 375.296c0 13.312-3.584 23.552-10.752 31.232s-19.968 15.36-37.888 22.528c-35.84 12.8-61.952 27.136-78.336 42.496s-24.576 37.376-24.576 66.56c0 27.136 8.192 49.152 25.088 65.536s39.424 26.624 68.608 29.184v50.688h37.376v-51.2c28.16-4.096 50.176-15.872 66.048-34.816s23.552-44.032 23.552-75.264h-69.12c0 18.944-3.584 33.28-11.264 43.52-7.68 9.728-17.92 14.848-31.232 14.848-13.824 0-24.064-3.584-30.72-11.264s-9.728-17.92-9.728-31.232c0-12.288 3.584-22.528 10.24-29.696 6.656-7.68 19.968-14.848 38.912-22.528 35.328-13.824 61.44-28.672 77.824-43.52 16.384-15.36 24.576-37.376 24.576-65.536 0-27.648-8.192-49.664-25.088-66.048-16.384-16.384-39.424-25.6-69.12-28.672v-46.592h-37.376v46.592c-30.208 3.072-54.784 13.312-73.728 31.232-18.944 17.408-28.672 44.544-28.672 80.384h69.12c0-21.504 4.608-36.864 14.336-45.568s22.016-13.312 37.376-13.312c14.336 0 25.6 3.584 33.28 11.264 7.168 5.632 11.264 15.872 11.264 29.184zM524.288 960h-463.872c-33.28 0-60.416-27.136-60.416-60.416v-903.168c0-33.28 27.136-60.416 60.416-60.416h463.872c33.28 0 60.416 27.136 60.416 60.416v903.168c0 33.28-27.136 60.416-60.416 60.416zM247.296 920.064h89.6c5.632 0 10.24-4.608 10.24-10.24s-4.608-10.24-10.24-10.24h-89.6c-5.632 0-10.24 4.608-10.24 10.24 0.512 5.632 4.608 10.24 10.24 10.24zM351.744 5.632c0-7.68-6.144-13.824-13.824-13.824h-92.16c-7.68 0-13.824 6.144-13.824 13.824v15.872c0 7.68 6.144 13.824 13.824 13.824h92.672c7.68 0 13.824-6.144 13.824-13.824v-15.872zM526.848 82.432h-470.016v777.216h470.016v-777.216z" />
<glyph unicode="&#xe93a;" glyph-name="account_setting" horiz-adv-x="1041" d="M1038.503 23.535l-24.862 184.393c-3.108 23.826-19.682 44.544-40.919 54.903 0 0-143.992 64.745-244.993 120.166 0 0-13.467 9.323-36.257-1.036s-48.17-97.376-171.962-92.714c-123.792-4.662-149.171 82.355-171.962 92.714s-36.257 1.036-36.257 1.036c-101.002-55.421-244.993-120.166-244.993-120.166-21.236-10.359-37.811-31.077-40.919-54.903l-24.862-184.393c-2.59-22.272 12.949-41.954 39.883-47.652 65.78-13.985 263.122-39.365 479.11-39.365s413.329 25.898 479.11 39.365c26.934 5.698 41.954 25.38 39.883 47.652zM518.992 351.401c118.612 0 191.644 102.037 223.757 240.332 5.698 1.036 34.703 11.395 34.703 99.966 0 5.18-1.036 21.754-15.021 21.754-11.913 122.238-93.232 243.958-243.958 243.958s-232.045-121.72-243.958-243.958c-13.467 0-15.021-16.575-15.021-21.754 0-88.571 29.006-98.93 34.703-99.966 33.149-138.294 106.181-240.332 224.793-240.332z" />
<glyph unicode="&#xe93b;" glyph-name="banking" horiz-adv-x="1030" d="M517.956 959.482c-282.804 0-512.259-229.455-512.259-512.259s229.455-512.259 512.259-512.259 512.259 229.455 512.259 512.259c0 282.804-229.455 512.259-512.259 512.259zM461.499 552.886c2.59-7.769 7.251-15.539 13.467-21.754 6.215-6.733 15.021-12.949 25.898-19.164s23.826-11.913 39.883-18.646c25.898-10.359 49.206-20.718 69.924-31.595 21.236-10.877 38.847-23.308 54.385-37.293 15.021-13.985 26.934-30.559 35.221-49.206s12.431-40.919 12.431-66.816c0-23.308-3.626-44.026-11.395-62.673s-18.128-34.703-32.113-48.17c-13.985-13.467-30.559-24.344-49.724-32.631-19.682-8.287-40.919-13.467-64.745-16.057v-78.729h-63.191v78.211c-21.754 2.59-42.99 7.769-63.709 15.539s-38.847 19.164-54.385 34.185c-16.057 15.021-28.488 33.667-38.329 56.457-9.323 22.79-14.503 50.242-14.503 81.837h114.468c0-18.646 2.59-34.703 7.251-47.134s11.395-22.79 19.682-30.041c8.287-7.769 17.611-12.949 27.97-16.057s21.236-4.662 32.113-4.662c12.431 0 23.308 1.554 32.631 5.18s17.093 8.287 23.826 14.503c6.215 6.215 10.877 13.467 14.503 21.754 3.108 8.287 4.662 17.611 4.662 27.452 0 10.877-1.554 20.718-4.144 29.524-3.108 8.287-7.769 16.057-14.503 22.79s-15.021 13.467-25.38 19.164c-10.359 5.698-23.308 11.395-38.329 17.093-25.898 9.841-49.724 20.2-70.442 30.559-21.236 10.877-39.365 23.308-54.385 37.293s-26.934 30.559-35.221 49.206c-8.287 18.646-12.431 40.919-12.431 66.816 0 22.272 3.626 42.99 10.877 61.637s18.128 34.703 31.595 48.17c13.985 13.985 30.041 24.862 49.206 33.667s40.919 13.985 64.745 16.575v84.945h63.709v-85.981c22.79-3.108 43.508-9.841 61.637-19.682 18.646-9.841 34.185-22.272 47.134-38.329 12.949-15.539 22.79-34.185 30.041-55.421s10.359-45.062 10.359-71.478h-114.468c0 31.595-6.733 55.421-19.682 71.478-12.949 15.539-30.559 23.826-52.314 23.826-11.913 0-22.272-1.554-30.559-5.18-8.805-3.626-15.539-8.287-21.236-14.503s-9.841-13.467-12.431-22.272c-2.59-8.287-4.144-17.611-4.144-27.452 0.518-10.359 1.554-19.164 4.144-26.934z" />
<glyph unicode="&#xe93c;" glyph-name="balance_summary" horiz-adv-x="1137" d="M321.024 445.952c37.888 0 73.728 3.072 107.008 9.216v17.92c0 13.312 1.536 26.112 5.12 38.4-33.279-7.168-70.656-11.264-112.128-11.264-154.624 0-262.656 57.856-262.656 109.568v91.136c57.856-41.472 152.576-68.608 262.656-68.608 109.568 0 204.8 26.624 262.656 68.608v-44.032c18.432 7.68 37.888 14.336 58.88 19.968v119.808c0 92.16-141.312 163.84-321.536 163.84s-321.536-72.192-321.536-163.84v-559.616c0-91.648 141.312-163.84 321.536-163.84 38.4 0 74.24 3.584 108.032 9.216-0.512 5.632-1.024 11.776-1.024 17.92v37.376c-32.258-6.144-68.096-10.24-107.008-10.24-154.624 0-262.656 57.856-262.656 109.568v91.136c57.856-41.472 152.576-68.608 262.656-68.608 37.888 0 73.728 3.072 107.008 9.216v55.296c-32.258-6.144-68.096-10.24-107.008-10.24-154.624 0-262.656 57.856-262.656 109.568v91.136c57.856-41.984 153.088-68.608 262.656-68.608zM321.024 905.728c154.624 0 262.656-57.856 262.656-109.568s-108.032-109.568-262.656-109.568c-154.624 0-262.656 57.856-262.656 109.568 0.512 52.224 108.032 109.568 262.656 109.568zM1137.152 473.088c0 91.648-141.312 163.84-321.536 163.84s-321.536-72.192-321.536-163.84v-373.248c0-91.648 141.312-163.84 321.536-163.84s321.536 72.192 321.536 163.84v0 373.248zM815.618 582.656c154.624 0 262.656-57.856 262.656-109.568s-108.032-109.568-262.656-109.568c-154.624 0-262.656 57.856-262.656 109.568s108.032 109.568 262.656 109.568zM1078.272 100.355v0c0-51.712-108.032-109.568-262.656-109.568s-262.656 57.856-262.656 109.568v91.136c57.856-41.472 152.576-68.608 262.656-68.608s204.8 26.624 262.656 68.608v-91.136zM1078.272 286.721v0c0-51.712-108.032-109.568-262.656-109.568s-262.656 57.856-262.656 109.568v91.136c57.856-41.472 152.576-68.608 262.656-68.608s204.8 26.624 262.656 68.608v-91.136z" />
<glyph unicode="&#xe93d;" glyph-name="account_summary" horiz-adv-x="1466" d="M1379.202 960.771h-1289.824c-49.312 0-89.378-40.066-89.378-89.378v-848.325c0-49.312 40.066-89.378 89.378-89.378h1289.824c49.312 0 89.378 40.066 89.378 89.378v848.325c0 49.312-40.066 89.378-89.378 89.378zM328.235 714.98c6.164 60.099 45.46 119.428 119.428 119.428s113.264-59.329 119.428-119.428c6.935 0 6.935-8.476 6.935-10.787 0-43.148-13.869-48.542-16.951-48.542-16.181-67.804-51.624-117.887-109.412-117.887s-94.002 50.083-109.412 117.887c-3.082 0.771-16.951 5.394-16.951 48.542-0.771 3.082 0 10.787 6.935 10.787zM193.397 367.482l12.328 90.149c1.541 11.558 9.246 21.574 20.033 26.968 0 0 70.886 31.591 120.199 58.558 0 0 6.935 4.623 17.722-0.771s23.886-47.771 83.985-45.46c60.87-2.312 73.198 40.066 83.985 45.46s17.722 0.771 17.722 0.771c49.312-26.968 120.199-58.558 120.199-58.558 10.787-5.394 18.492-15.41 20.033-26.968l12.328-90.149c1.541-10.787-6.164-20.804-19.263-23.115h-469.237c-13.869 2.312-21.574 12.328-20.033 23.115zM1285.971 84.707h-1104.132c-26.197 0-48.542 18.492-48.542 41.607s21.574 41.607 48.542 41.607h1104.132c26.197 0 48.542-18.492 48.542-41.607s-21.574-41.607-48.542-41.607zM1285.971 343.597h-420.695c-26.197 0-48.542 18.492-48.542 41.607s21.574 41.607 48.542 41.607h420.695c26.197 0 48.542-18.492 48.542-41.607 0-22.345-21.574-41.607-48.542-41.607zM1285.971 603.257h-420.695c-26.197 0-48.542 18.492-48.542 41.607s21.574 41.607 48.542 41.607h420.695c26.197 0 48.542-18.492 48.542-41.607s-21.574-41.607-48.542-41.607z" />
<glyph unicode="&#xe93e;" glyph-name="update_profile" horiz-adv-x="826" d="M-5.18 142.665l1.036-188.018c0-16.575 11.913-23.308 26.416-15.021l163.156 93.232c-23.826 25.38-53.867 48.688-87.535 68.37s-68.888 33.667-103.073 41.437zM348.067 798.916l-350.139-606.527c41.437-8.805 83.909-25.38 124.828-48.688 40.401-23.308 76.14-52.314 104.627-83.391l350.139 606.527c-26.416 32.113-61.637 62.155-103.073 85.981-41.954 23.826-85.463 39.365-126.381 46.098zM602.901 711.381l36.257 62.673c25.898 45.062 12.949 101.519-29.006 125.863l-76.14 44.026c-41.954 24.344-97.376 7.251-123.792-37.811l-36.257-62.673c41.437-8.805 83.909-25.38 124.828-48.688 40.401-23.308 75.622-51.796 104.109-83.391zM825.105 3.852h-545.926l-119.13-67.852h665.056z" />
<glyph unicode="&#xe93f;" glyph-name="password_setting" horiz-adv-x="735" d="M652.625 545.635h-54.903v184.393c0 126.899-103.073 229.973-229.973 229.973s-229.973-103.073-229.973-229.973v-184.393h-54.903c-45.58 0-82.873-37.293-82.873-82.873v-442.853c0-45.58 37.293-82.873 82.873-82.873h569.752c45.58 0 82.873 37.293 82.873 82.873v442.853c0 45.58-37.293 82.873-82.873 82.873zM273.999 109.515l45.062 145.546c-22.79 15.539-37.293 41.437-37.293 70.96 0 47.652 38.847 86.499 86.499 86.499s86.499-38.847 86.499-86.499c0-29.524-15.021-55.421-37.293-70.96l45.062-145.546h-188.536zM492.577 545.635h-249.655v184.393c0 68.888 55.939 124.828 124.828 124.828s124.828-55.939 124.828-124.828v-184.393z" />
<glyph unicode="&#xe940;" glyph-name="sign_up" horiz-adv-x="1097" d="M737.052 235.897v-208.736h-642.784v594.614h284.358c26.416 0 47.652 21.236 47.652 47.134v203.557h310.774v-178.695l89.089 93.75v125.345c0 25.898-21.236 47.134-47.652 47.134h-399.862c-10.359 0-20.718-3.108-29.006-9.323l-325.795-243.958c-11.913-8.805-18.646-22.79-18.646-37.293v-682.149c0-25.898 21.236-47.134 47.652-47.134h725.657c26.416 0 47.652 21.236 47.652 47.134v342.887l-89.089-94.268zM337.19 830.511v-121.202h-162.12l162.12 121.202zM459.427 317.216l-37.293-138.812c-3.108-12.431 4.144-19.682 16.575-16.575l141.402 36.257c-12.949 23.308-30.559 46.616-52.314 67.852-20.718 21.754-44.544 38.847-68.37 51.278zM856.7 730.545l-385.36-377.59c29.524-14.503 58.011-35.221 83.909-60.601s46.616-53.35 61.637-82.355l385.36 377.59c-12.949 29.006-33.667 58.011-60.083 83.909s-55.939 46.098-85.463 59.047zM1031.251 616.595l39.883 38.847c28.488 27.97 30.041 72.514 3.626 98.412l-48.688 47.652c-26.934 25.898-71.996 24.862-100.484-3.626l-39.883-38.847c29.524-14.503 58.011-35.221 83.909-60.601 25.38-24.862 46.616-53.35 61.637-81.837z" />
<glyph unicode="&#xe941;" glyph-name="close_btn" d="M949.248-62.464l-948.224 947.712c-1.536 1.536-1.536 4.096 0 5.632l67.584 68.096c1.536 1.536 4.096 1.536 5.632 0l948.224-948.224c1.536-1.536 1.536-4.096 0-5.632l-67.584-67.584c-1.536-1.536-4.096-1.536-5.632 0zM1022.464 885.248l-947.712-947.712c-1.536-1.536-4.096-1.536-5.632 0l-68.096 67.584c-1.536 1.536-1.536 4.096 0 5.632l948.224 948.224c1.536 1.536 4.096 1.536 5.632 0l67.584-67.584c1.536-1.536 1.536-4.096 0-6.144z" />
<glyph unicode="&#xe942;" glyph-name="bank_status2" horiz-adv-x="986" d="M767.612 112.105h182.839v-70.442c0-58.529-47.134-105.663-105.663-105.663h-739.124c-58.529 0-105.663 47.134-105.663 105.663v527.798c0 58.529 47.134 105.663 105.663 105.663h70.442v-70.442h-44.026c-35.221 0-35.221-35.221 0-35.221h712.708c58.529 0 105.663-47.134 105.663-105.663v-70.442h-182.839c-77.693 0-140.884-63.191-140.884-140.884 0-77.176 63.191-140.366 140.884-140.366zM985.671 323.431v-140.884c0-19.682-15.539-35.221-35.221-35.221h-172.48c-58.529 0-105.663 47.134-105.663 105.663s47.134 105.663 105.663 105.663h172.48c19.682 0 35.221-16.057 35.221-35.221zM849.967 252.989c0 22.272-18.128 40.401-40.401 40.401s-40.401-18.128-40.401-40.401c0-22.272 18.128-40.401 40.401-40.401s40.401 17.611 40.401 40.401zM684.221 691.181c-64.745 27.452-136.741 4.662-160.049-51.278-4.662-11.395-6.733-23.308-6.733-35.221h246.029c-9.841 36.257-38.329 69.406-79.247 86.499zM457.356 604.682l75.104 178.177c55.939-23.308 119.648 2.59 143.474 58.011l101.002-42.472c-23.308-55.939 2.59-119.648 58.011-143.474l-21.236-50.242h75.622l55.421 122.756c15.539 37.293-1.554 79.765-38.847 95.822l-302.487 127.935c-37.293 15.539-79.765-1.554-95.822-38.847l-130.007-307.666h79.765zM247.583 605.2l67.852 255.871c2.072 8.287 5.18 16.057 8.805 23.308-39.365 4.144-75.104-23.308-80.283-62.673l-29.006-217.024h32.631zM332.010 604.682l128.453 304.558c1.036 2.072 2.072 4.144 3.626 6.215l-10.359 2.59c-38.847 10.359-78.729-12.949-89.089-51.796l-69.406-261.568h36.775z" />
<glyph unicode="&#xe943;" glyph-name="bank_status_vertical" horiz-adv-x="1056" d="M182.321 161.311v-189.054h-73.032c-60.083 0-109.289 48.688-109.289 109.289v763.986c0 60.083 48.688 109.289 109.289 109.289h545.926c60.083 0 109.289-48.688 109.289-109.289v-73.032h-73.032v45.58c0 36.257-36.257 36.257-36.257 0v-737.052c0-60.083-48.688-109.289-109.289-109.289h-73.032v189.572c0 80.283-65.263 145.546-145.546 145.546-79.765 0-145.028-65.263-145.028-145.546zM400.898-64h-145.546c-20.2 0-36.257 16.057-36.257 36.257v178.177c0 60.083 48.688 109.289 109.289 109.289 60.083 0 109.289-48.688 109.289-109.289v-178.177c-0.518-20.2-16.575-36.257-36.775-36.257zM327.866 75.848c23.308 0 41.954 18.646 41.954 41.954s-18.646 41.954-41.954 41.954-41.954-18.646-41.954-41.954c0.518-23.308 19.164-41.954 41.954-41.954zM781.596 247.81c28.488 67.334 4.662 141.402-52.832 165.746-11.913 5.18-24.344 6.733-36.775 7.251v-254.317c37.293 9.323 71.996 38.847 89.606 81.319zM691.99 481.926l184.393-77.693c-24.344-57.493 2.59-123.792 60.083-148.136l-44.026-104.109c-57.493 24.344-123.792-2.59-148.136-60.083l-52.314 22.272v-78.211l126.899-56.975c38.329-16.057 82.873 1.554 98.93 39.883l132.079 312.846c16.057 38.329-1.554 82.355-39.883 98.93l-318.025 134.151v-82.873zM691.99 698.95l264.676-69.924c8.805-2.072 16.575-5.18 24.344-9.323 4.662 40.919-24.344 77.693-64.745 82.873l-224.275 30.041v-33.667zM691.99 611.415l314.918-133.115c2.59-1.036 4.144-2.59 6.733-3.626l2.59 10.877c10.877 40.401-13.467 81.319-53.867 92.196l-270.373 71.478v-37.811z" />
<glyph unicode="&#xe944;" glyph-name="android" horiz-adv-x="867" d="M62.976 628.736c-34.816 0-62.976-28.16-62.976-62.976v-264.704c0-34.816 28.16-62.976 62.976-62.976s62.976 28.16 62.976 62.976v264.704c0.512 34.816-27.648 62.976-62.976 62.976zM572.928 866.304l44.032 80.384c2.56 4.096 1.024 9.728-3.584 11.776-4.096 2.048-9.728 0.512-11.776-3.584l-44.544-81.408c-37.376 16.896-79.36 26.112-123.904 26.112-44.032 0-86.016-9.216-123.392-26.112l-44.544 81.408c-2.56 4.096-7.68 5.632-11.776 3.584-4.096-2.56-5.632-7.68-3.584-11.776l44.032-80.384c-86.528-44.544-145.408-130.048-145.408-227.84h569.344c0 98.304-58.368 183.296-144.896 227.84zM303.616 741.888c-13.312 0-23.552 10.752-23.552 24.064s10.752 24.064 24.064 24.064c13.312 0 24.064-10.752 24.064-24.064-0.512-13.312-11.264-24.064-24.576-24.064zM562.688 741.888c-13.312 0-24.064 10.752-24.064 24.064s10.752 24.064 24.064 24.064c13.312 0 24.064-10.752 24.064-24.064s-10.752-24.064-24.064-24.064zM151.040 616.96v-410.112c0-37.376 30.208-67.584 67.584-67.584h46.080v-139.776c0-34.816 28.16-62.976 62.976-62.976s62.976 28.16 62.976 63.488v139.776h85.504v-139.776c0-34.816 28.16-62.976 62.976-62.976s62.976 28.16 62.976 62.976v139.776h46.080c37.376 0 67.584 30.208 67.584 67.584v410.112l-564.736-0.512zM866.816 565.76c0 34.816-28.16 62.976-62.976 62.976s-62.976-28.16-62.976-62.976v-264.704c0-34.816 28.16-62.976 62.976-62.976s62.976 28.16 62.976 62.976v264.704z" />
<glyph unicode="&#xe945;" glyph-name="apple" horiz-adv-x="863" d="M862.533 209.411c-5.675-16.508-11.865-32.5-17.54-47.46-15.476-35.595-34.047-68.611-55.198-99.047-28.889-41.27-52.619-70.158-71.19-85.634-27.857-25.793-58.809-39.206-91.309-39.722-23.214 0-51.071 6.706-84.087 20.119s-62.936 20.119-90.793 20.119c-28.889 0-59.841-6.706-93.372-20.119s-59.841-20.635-80.476-21.151c-31.468-1.032-61.904 12.381-93.372 40.754-20.119 17.024-44.881 46.944-74.285 88.729-31.984 44.881-58.293 96.468-78.928 155.792-22.182 63.968-33.016 126.388-33.016 186.229 0 68.611 14.96 127.936 44.881 177.459 23.214 39.722 54.682 71.19 93.372 94.404s80.991 35.079 126.388 35.595c24.762 0 57.261-7.738 97.499-22.698s66.547-22.698 77.896-22.698c8.77 0 37.143 9.286 85.634 26.825 45.912 16.508 84.603 23.214 116.586 20.635 86.15-7.222 151.15-40.754 193.967-102.142-76.864-46.944-115.555-111.944-114.523-196.030 0.516-64.999 24.246-119.682 71.19-163.015 21.151-20.635 44.365-35.595 70.674-46.944zM645.868 960c0.516-7.222 1.032-13.413 1.032-20.635 0-51.071-19.087-99.047-56.23-143.412-45.396-52.619-99.563-83.055-158.372-78.412-0.516 5.675-1.032 12.381-1.032 19.603 0 49.008 21.666 102.142 59.325 144.959 19.087 21.666 43.333 39.722 72.222 54.682 29.92 13.928 57.261 22.182 83.055 23.214z" />
<glyph unicode="&#xe946;" glyph-name="windows" horiz-adv-x="1017" d="M430.645 18.639l-430.645 60.054v362.891h430.645v-422.945zM430.645 473.921h-430.645v343.386l430.645 60.054v-403.441zM1017.327-64l-554.859 79.046v426.538h554.859v-505.584zM1017.327 473.921h-554.859v407.034l554.859 79.046v-486.079z" />
<glyph unicode="&#xe947;" horiz-adv-x="1229" d="M0 960h1228.8v-1024h-1228.8v1024z" />
<glyph unicode="&#xe948;" horiz-adv-x="1229" d="M355.123 703.59l-91.341 54.682c-4.71 2.867-10.854 1.024-13.312-3.891l-130.458-263.373c-2.662-5.12-0.614-11.469 4.301-14.336l91.341-54.682c4.71-2.867 10.854-1.024 13.312 3.891l130.458 263.168c2.458 5.12 0.614 11.469-4.301 14.541zM216.678 442.675l-77.21 46.285 123.085 248.422 77.21-46.080-123.085-248.627z" />
<glyph unicode="&#xe949;" horiz-adv-x="1229" d="M1108.787 491.213l-130.253 263.168c-2.458 4.915-8.602 6.758-13.312 3.891l-91.341-54.682c-4.915-2.867-6.758-9.216-4.301-14.336l130.458-263.168c2.458-4.915 8.602-6.758 13.312-3.891l91.341 54.682c4.915 2.867 6.758 9.011 4.096 14.336zM1012.122 442.88l-123.085 248.422 77.21 46.080 123.085-248.422-77.21-46.080z" />
<glyph unicode="&#xe94a;" horiz-adv-x="1229" d="M922.624 380.006l-334.438 200.090c-3.891 2.253-8.602 2.253-12.493 0l-16.589-9.83c-7.782-4.506-18.022-10.445-27.853-15.155-12.083-5.734-26.214-9.011-44.442-10.035-13.312-0.819-40.141-1.024-46.899 10.445-3.482 5.939-1.843 10.854 3.072 14.95l134.758 113.459c7.578 6.349 16.998 9.83 26.829 9.83h83.558c14.336 0 28.262-4.301 39.936-12.493l36.045-24.781c16.179-11.059 35.021-16.998 54.682-16.998 17.408 0 34.406 4.71 49.357 13.517 1.229 0.819 2.867 1.638 4.506 2.662l-8.397 16.794-5.53-3.277c-12.288-7.373-26.010-11.059-39.936-11.059-15.36 0-30.925 4.506-44.032 13.722l-36.045 24.781c-14.95 10.24-32.563 15.77-50.586 15.77h-83.558c-14.131 0-28.058-5.12-38.912-14.131l-134.963-113.459c-13.312-11.264-14.131-26.829-6.963-38.707 11.469-19.456 41.37-20.89 64.102-19.456 17.203 1.024 35.021 3.891 51.405 11.878 10.24 4.915 20.89 11.059 29.082 15.974l10.24 6.144c1.843 1.229 4.301 1.229 6.349 0l328.090-196.608c15.565-9.216 20.685-29.491 11.264-45.261-9.216-15.565-29.491-20.685-45.261-11.264l-38.912 23.347c0 0-48.947 29.286-48.947 29.286-4.506 2.662-10.24 1.229-12.698-3.277-2.662-4.506-1.229-10.24 3.277-12.698l48.947-29.286c15.565-9.216 20.685-29.491 11.469-45.261-9.216-15.565-29.491-20.685-45.261-11.469 0 0-35.84 21.299-38.298 22.938-0.205 0-0.205 0.205-0.614 0.41l-32.768 19.456c-4.506 2.662-10.24 1.229-12.698-3.277-2.662-4.506-1.229-10.035 3.277-12.698l32.563-19.456c0 0 0.205 0 0.41-0.205 15.36-9.421 20.275-29.491 11.059-45.056s-29.491-20.685-45.261-11.264l-38.502 23.142c0 0-16.794 10.035-16.794 10.035-4.506 2.662-10.24 1.229-12.698-3.277-2.662-4.506-1.229-10.035 3.277-12.698l16.794-10.035c15.155-9.216 20.275-29.286 11.059-45.056-9.421-15.565-29.491-20.685-45.261-11.469l-25.6 15.36-9.83-15.77 26.010-15.565c24.371-14.541 56.115-6.758 70.656 17.818 5.939 10.035 8.602 22.118 6.758 34.406l4.915-2.867c24.371-14.541 56.115-6.758 70.656 17.818 6.144 10.24 8.602 22.323 6.758 34.406 2.867-1.843 4.915-2.867 4.915-2.867 24.371-14.541 56.115-6.554 70.656 17.818 5.939 10.035 8.602 22.118 6.758 34.406l4.915-2.867c24.371-14.541 56.115-6.758 70.656 17.818 14.541 24.371 5.939 56.115-18.022 70.451z" />
<glyph unicode="&#xe94b;" horiz-adv-x="1229" d="M596.173 286.003c-10.445 5.939-23.142 8.397-36.045 5.53 6.963 22.118-2.048 47.718-23.757 60.006-11.878 6.758-26.419 8.806-40.55 4.506 0.614 6.144 0.205 12.493-1.638 18.637-3.686 13.312-12.288 24.371-24.166 31.13-20.48 11.674-45.466 7.782-61.645-7.987-4.096 11.469-12.288 21.709-24.166 28.467-25.19 14.336-55.706 6.349-68.608-16.179l-36.659-64.512c-13.517-23.757-2.867-53.658 21.094-67.174 12.698-7.168 28.467-9.421 43.213-4.506 0-18.022 9.421-35.43 26.010-44.851 15.77-9.011 34.816-9.011 50.586-0.205 2.458-16.384 12.083-29.491 25.395-37.069 15.565-8.806 34.611-9.011 50.381-0.205 2.458-15.565 11.469-29.286 25.395-37.274 24.986-14.336 56.525-5.12 70.246 19.251l23.962 42.189c14.336 24.576 5.734 56.115-19.046 70.246zM352.666 303.616c-7.987-14.131-27.443-18.227-43.213-9.216-16.179 9.216-21.914 28.262-14.131 41.779l36.659 64.512c7.987 14.131 27.443 18.227 43.213 9.216s22.118-27.648 14.131-41.779l-36.659-64.512zM423.526 257.331c-8.806-15.565-28.877-21.504-44.851-12.288-15.77 9.011-21.299 29.082-12.288 44.851l49.766 87.245c8.806 15.565 28.877 21.504 44.851 12.288 15.565-8.806 21.504-28.877 12.288-44.851l-49.766-87.245zM499.507 220.058c-8.806-15.565-28.877-21.504-44.851-12.288-15.565 8.806-21.504 28.877-12.288 44.851l39.936 70.451c8.806 15.565 28.877 21.504 44.851 12.288 15.565-8.806 21.504-28.877 12.288-44.851l-39.936-70.451zM599.45 224.768l-23.962-42.189c-8.806-15.565-28.877-21.504-44.851-12.288-15.565 8.806-21.504 28.877-12.288 44.851l23.962 42.189c8.806 15.565 28.877 21.504 44.851 12.288 15.77-8.806 21.299-29.082 12.288-44.851z" />
<glyph unicode="&#xe94c;" horiz-adv-x="1229" d="M285.082 380.621l12.698 22.323c-5.53 14.131-15.36 26.010-28.467 33.792l-16.384 9.83-8.397-16.794 15.155-9.011c10.65-6.349 18.637-16.794 22.118-28.877l3.277-11.264z" />
<glyph unicode="&#xe94d;" horiz-adv-x="1229" d="M360.858 653.005c15.155-9.011 32.358-13.517 49.357-13.517 19.046 0 38.298 5.734 54.682 16.998l42.394 29.082c4.71 3.277 10.035 4.915 15.565 4.915 1.843 0 3.891-0.205 5.734-0.614l6.144-1.638 17.408 14.541-17.203 4.71c-3.891 1.024-7.987 1.638-12.083 1.638-9.216 0-18.432-2.867-26.214-8.192l-42.394-29.082c-13.107-9.011-28.672-13.722-44.032-13.722-13.722 0-27.648 3.686-39.936 11.059l-5.734 3.482-8.192-16.794c1.843-1.229 3.482-2.253 4.506-2.867z" />
<glyph unicode="&#xe94e;" horiz-adv-x="1229" d="M959.488 436.736c-14.95-9.011-25.805-23.142-30.515-39.731l-1.638-5.53 15.77-12.698 3.686 13.107c3.482 12.083 11.264 22.528 22.118 28.877l15.155 9.011-8.192 16.794-16.384-9.83z" />
<glyph unicode="&#xe94f;" glyph-name="affiliate" horiz-adv-x="1629" d="M388.25 867.484l-150.239 90.144c-7.907 4.744-18.187 1.581-22.141-6.326l-214.289-432.531c-3.954-8.698-0.791-18.978 7.117-23.722l150.239-90.144c7.907-4.744 18.187-1.581 22.141 6.326l214.289 432.531c3.954 8.698 0.791 18.978-7.117 23.722zM160.519 438.907l-127.308 75.91 202.428 408.019 127.308-75.91-202.428-408.019zM1627.33 518.771l-214.289 432.531c-3.954 7.907-14.233 11.070-22.141 6.326l-150.239-90.144c-7.907-4.744-11.070-15.024-7.117-23.722l214.289-432.531c3.954-7.907 14.233-11.070 22.141-6.326l150.239 90.144c7.907 4.744 11.070 15.024 7.117 23.722zM1468.392 439.697l-202.428 408.019 127.308 75.91 202.428-408.019-127.308-75.91zM1320.525 336.111l-549.56 328.945c-6.326 3.954-14.233 3.954-20.559 0l-27.676-15.815c-12.652-7.907-29.257-17.396-45.863-25.303-19.768-9.489-42.7-15.024-72.747-16.605-22.141-1.581-65.631-1.581-77.492 17.396-5.535 9.489-3.163 17.396 4.744 24.513l221.405 186.613c12.652 10.28 27.676 15.815 44.281 15.815h137.588c23.722 0 46.653-7.117 65.631-20.559l59.305-40.327c26.094-18.187 57.724-27.676 90.144-27.676 28.466 0 56.933 7.907 80.655 22.141 2.372 1.581 4.744 2.372 7.117 3.954l-13.442 27.676-9.489-5.535c-19.768-11.861-42.7-18.187-65.631-18.187-25.303 0-50.607 7.907-72.747 22.141l-59.305 40.327c-24.513 16.605-53.77 26.094-83.027 26.094h-137.588c-23.722 0-45.863-7.907-64.049-22.931l-221.405-186.613c-22.141-18.187-22.931-44.281-11.861-63.259 18.978-31.629 68.003-34.002 105.168-32.42 28.466 1.581 57.724 6.326 84.608 19.768 16.605 7.907 34.002 18.187 47.444 26.094l16.605 10.28c3.163 1.581 7.117 1.581 10.28 0l539.28-322.619c25.303-15.024 34.002-48.235 18.978-74.329-15.024-25.303-48.235-34.002-74.329-18.978l-64.049 37.955c0 0-80.655 48.235-80.655 48.235-7.117 3.954-16.605 1.581-21.35-5.535-3.954-7.117-2.372-16.605 5.535-21.35l80.655-48.235c25.303-15.024 34.002-48.235 18.978-74.329-15.024-25.303-48.235-34.002-74.329-18.978 0 0-58.514 34.792-63.259 37.955 0 0-0.791 0-0.791 0.791l-53.77 32.42c-7.117 3.954-16.605 2.372-21.35-5.535-3.954-7.117-1.581-16.605 5.535-21.35l53.77-32.42c0 0 0 0 0.791-0.791 25.303-15.815 33.211-48.235 18.187-74.329-15.024-25.303-48.235-34.002-74.329-18.978l-63.259 37.955c0 0-27.676 16.605-27.676 16.605-7.117 3.954-16.605 2.372-21.35-5.535-3.954-7.117-1.581-16.605 5.535-21.35l27.676-16.605c25.303-15.024 33.211-48.235 18.187-73.538s-48.235-34.002-74.329-18.978l-41.909 25.303-16.605-26.094 42.7-25.303c40.327-23.722 92.516-11.070 116.238 29.257 10.28 16.605 14.233 36.374 11.070 56.142l7.907-4.744c40.327-23.722 92.516-11.070 116.238 29.257 10.28 16.605 14.233 36.374 11.070 56.142 4.744-3.163 7.907-4.744 7.907-4.744 40.327-23.722 92.516-11.070 116.238 29.257 10.28 16.605 14.233 36.374 11.070 56.142l7.907-4.744c40.327-23.722 92.516-11.070 116.238 29.257 26.885 44.281 13.442 96.469-26.885 120.192zM784.408 181.127c-17.396 9.489-37.955 13.442-59.305 9.489 11.070 36.374-3.163 78.283-38.746 98.842-19.768 11.070-43.49 14.233-66.422 7.117 0.791 10.28 0 20.559-2.372 30.839-6.326 22.141-20.559 40.327-39.537 51.398-34.002 18.978-75.12 12.652-101.214-13.442-6.326 18.978-20.559 35.583-39.537 46.653-41.118 23.722-91.725 10.28-113.075-26.885l-60.096-105.958c-22.141-38.746-4.744-87.771 34.792-110.703 21.35-11.861 46.653-15.815 71.166-7.117 0-29.257 15.024-58.514 42.7-73.538 26.094-15.024 56.933-15.024 83.027 0 3.954-26.885 19.768-48.235 41.909-60.886 25.303-14.233 56.933-15.024 83.027 0 3.954-25.303 18.978-48.235 41.909-60.886 41.118-23.722 92.516-8.698 115.447 31.629l39.537 69.585c22.141 39.537 7.907 90.934-33.211 113.866zM384.297 210.385c-13.442-22.931-45.072-30.048-71.166-15.024-26.885 15.024-35.583 46.653-22.931 68.794l60.096 105.958c13.442 22.931 45.072 30.048 71.166 15.024s36.374-45.863 22.931-68.794l-60.096-105.958zM500.534 134.474c-14.233-25.303-47.444-35.583-73.538-20.559s-34.792 48.235-20.559 73.538l81.446 143.914c14.233 25.303 47.444 35.583 73.538 20.559 25.303-14.233 35.583-47.444 20.559-73.538l-81.446-143.914zM625.47 72.797c-14.233-25.303-47.444-35.583-73.538-20.559-26.094 14.233-35.583 47.444-20.559 73.538l65.631 115.447c14.233 25.303 47.444 35.583 73.538 20.559 25.303-14.233 35.583-47.444 20.559-73.538l-65.631-115.447zM789.943 80.704l-39.537-69.585c-14.233-25.303-47.444-35.583-73.538-20.559-25.303 14.233-35.583 47.444-20.559 73.538l39.537 69.585c14.233 25.303 47.444 35.583 73.538 20.559 26.094-14.233 34.792-47.444 20.559-73.538zM272.803 336.902l20.559 37.164c-8.698 22.931-25.303 42.7-46.653 55.351l-26.885 15.815-13.442-27.676 24.513-15.024c17.396-10.28 30.839-27.676 36.374-47.444l5.535-18.187zM397.739 785.248c25.303-15.024 52.979-22.141 81.446-22.141 31.629 0 63.259 9.489 90.144 27.676l69.585 48.235c7.907 5.535 16.605 7.907 25.303 7.907 3.163 0 6.326 0 9.489-0.791l10.28-2.372 28.466 23.722-28.466 7.907c-6.326 1.581-13.442 2.372-19.768 2.372-15.024 0-30.048-4.744-42.7-13.442l-69.585-48.235c-21.35-15.024-46.653-22.141-72.747-22.141-22.931 0-45.072 6.326-65.631 18.187l-9.489 5.535-13.442-27.676c2.372-2.372 5.535-3.954 7.117-4.744zM1381.412 429.418c-24.513-15.024-42.7-37.955-49.816-65.631l-2.372-9.489 26.094-20.559 6.326 21.35c5.535 19.768 18.978 37.164 36.374 47.444l24.513 15.024-13.442 27.676-27.676-15.815z" />
<glyph unicode="&#xe950;" glyph-name="cancel_filter" d="M510.165 960c-282.609 0-510.165-227.556-510.165-510.165s227.556-510.165 510.165-510.165c282.609 0 510.165 227.556 510.165 510.165 3.67 282.609-227.556 510.165-510.165 510.165zM737.72 258.982l-36.703-36.703-190.853 187.183-187.183-187.183-36.703 36.703 187.183 187.183-187.183 190.853 36.703 36.703 187.183-187.183 187.183 187.183 36.703-36.703-183.513-187.183 187.183-190.853z" />
<glyph unicode="&#xe951;" glyph-name="bliss" horiz-adv-x="2025" d="M1961.86 659.962c-40.65-8.711-81.301-7.743-111.304-0.968 196.476 80.333 172.28 264.227 172.28 267.13-1.936 14.518-12.582 27.1-26.132 32.907-13.55 4.839-30.004 1.936-40.65-7.743-80.333-69.686-158.73-63.879-218.737-60.975-9.679 0-19.357 0.968-28.068 0.968h-5.807c-107.433 0-191.637-58.072-238.095-123.887-63.879 104.529-150.987 121.951-203.251 121.951-96.786 0-195.509-57.104-249.709-121.951-54.2 64.847-152.922 121.951-249.709 121.951-52.265 0-139.372-17.422-203.251-121.951-47.425 65.815-130.662 123.887-238.095 123.887h-5.807c-8.711 0-18.389-0.968-28.068-0.968-60.008-2.904-138.405-8.711-218.737 60.975-11.614 9.679-27.1 12.582-40.65 7.743s-24.197-17.422-26.132-32.907c0-1.936-24.197-185.83 172.28-267.13-30.004-6.775-69.686-6.775-111.304 0.968-14.518 2.904-29.036-1.936-38.715-12.582s-13.55-26.132-8.711-39.682c18.389-61.943 96.786-179.055 257.452-179.055 9.679 0 20.325 0 30.972 0.968-16.454-21.293-39.682-43.554-73.558-60.975-15.486-7.743-24.197-24.197-22.261-40.65 1.936-17.422 13.55-30.972 30.004-35.811 2.904-0.968 66.783-18.389 147.115-18.389 96.786 0 174.216 25.164 230.352 72.59 44.522-53.233 97.754-106.465 151.955-159.698 75.493-73.558 152.922-150.019 212.93-234.223 7.743-10.647 20.325-17.422 32.907-17.422 13.55 0 26.132 6.775 33.875 17.422 60.008 84.204 137.437 160.665 212.93 234.223 54.2 53.233 108.401 106.465 151.955 159.698 56.136-47.425 133.565-72.59 230.352-72.59 80.333 0 144.212 17.422 147.115 18.389 16.454 4.839 28.068 18.389 30.004 35.811 1.936 16.454-6.775 32.907-22.261 40.65-33.875 17.422-57.104 39.682-73.558 60.975 10.647-0.968 20.325-0.968 30.972-0.968 160.665 0 239.062 117.112 257.452 179.055 3.871 13.55 0.968 29.036-8.711 39.682-12.582 10.647-27.1 15.486-41.618 12.582zM1751.834 509.943c-28.068 0-60.008 4.839-92.915 13.55-13.55 3.871-29.036 0-39.682-9.679s-14.518-25.164-11.614-38.715c0.968-3.871 14.518-61.943 66.783-118.079-10.647-0.968-22.261-0.968-34.843-0.968-79.365 0-140.34 19.357-180.991 56.136 51.297 79.365 74.526 161.633 47.425 255.516 13.55 51.297 81.301 140.34 200.348 140.34v0c8.711 0 17.422-0.968 26.132-0.968 53.233-1.936 120.983-5.807 197.444 29.036-20.325-48.393-71.622-106.465-199.38-125.822-14.518-1.936-28.068-12.582-32.907-27.1s-0.968-30.004 8.711-41.618c2.904-2.904 66.783-67.75 187.766-70.654-26.132-30.004-70.654-60.975-142.276-60.975zM1201.119 245.716c-64.847-62.911-131.629-128.726-188.733-201.316-57.104 72.59-123.887 137.437-188.733 201.316-58.072 57.104-113.24 111.304-155.826 164.537-9.679 11.614-18.389 24.197-26.132 35.811-12.582 18.389-23.229 37.747-31.94 56.136-12.582 28.068-19.357 56.136-20.325 84.204 0 13.55 0 27.1 2.904 40.65 1.936 8.711 3.871 18.389 6.775 27.1 1.936 4.839 3.871 8.711 4.839 13.55 33.875 90.979 87.108 137.437 158.73 137.437 100.658 0 197.444-86.14 210.026-131.629 4.839-17.422 21.293-30.004 39.682-30.004s34.843 12.582 39.682 30.004c12.582 45.49 110.336 131.629 210.026 131.629 71.622 0 124.854-46.457 158.73-137.437 1.936-4.839 3.871-8.711 4.839-13.55 2.904-8.711 5.807-18.389 6.775-27.1 2.904-13.55 2.904-27.1 2.904-40.65-0.968-28.068-7.743-56.136-20.325-84.204-8.711-19.357-19.357-37.747-31.94-56.136-7.743-11.614-17.422-24.197-26.132-35.811-42.586-53.233-97.754-107.433-155.826-164.537zM383.274 357.021c-11.614 0-23.229 0.968-34.843 0.968 51.297 56.136 65.815 114.208 66.783 118.079 2.904 14.518-0.968 29.036-11.614 38.715s-25.164 13.55-39.682 9.679c-32.907-9.679-63.879-13.55-92.915-13.55-71.622 0-116.144 30.972-143.244 60.975 120.983 1.936 184.862 67.75 187.766 70.654 10.647 10.647 14.518 27.1 8.711 41.618-4.839 14.518-17.422 25.164-32.907 27.1-128.726 20.325-180.023 77.429-200.348 125.822 76.461-35.811 144.212-31.94 197.444-29.036 9.679 0 18.389 0.968 30.972 0.968 115.176 0 182.926-88.076 196.476-139.372-27.1-92.915-2.904-176.151 47.425-255.516-39.682-38.715-99.69-57.104-180.023-57.104zM813.974 758.684c-97.754 26.132-155.826-41.618-170.344-93.883 0-0.968 0-1.936 0-2.904-3.871-20.325 7.743-40.65 28.068-47.425 3.871-0.968 7.743-1.936 11.614-1.936 8.711 0 16.454 2.904 23.229 6.775 7.743 4.839 13.55 12.582 16.454 21.293 4.839 16.454 22.261 51.297 70.654 38.715 21.293-5.807 44.522 6.775 50.329 29.036 4.839 21.293-8.711 44.522-30.004 50.329zM699.766 563.176c-4.839 1.936-10.647 3.871-17.422 3.871-9.679 0-17.422-3.871-25.164-8.711-10.647-7.743-17.422-19.357-17.422-33.875 0-9.679 3.871-19.357 9.679-26.132 7.743-9.679 19.357-16.454 32.907-16.454 1.936 0 3.871 0.968 6.775 0.968 20.325 2.904 35.811 20.325 35.811 41.618 0 17.422-10.647 31.94-25.164 38.715z" />
<glyph unicode="&#xe952;" glyph-name="acb" horiz-adv-x="2661" d="M367.811 954.82h210.671l367.811-1010.185h-238.3l-77.707 226.212h-314.28l-75.98-226.212h-240.027l367.811 1010.185zM592.297 331.44l-117.423 357.45-120.877-357.45h238.3zM930.752 459.224c0 60.438 12.088 120.877 34.536 181.315s55.258 113.97 100.155 160.594c43.17 46.624 96.702 86.341 158.867 115.696s132.965 44.897 214.125 44.897c94.975 0 177.862-20.722 246.934-60.438 69.073-41.444 120.877-93.248 155.413-158.867l-179.589-124.331c-12.088 25.902-25.902 48.351-43.17 65.619s-36.263 31.083-56.985 43.17c-20.722 10.361-41.444 18.995-63.892 22.449s-43.17 6.907-63.892 6.907c-44.897 0-82.887-8.634-117.423-27.629-32.809-17.268-60.438-41.444-82.887-69.073s-37.99-60.438-48.351-96.702c-10.361-36.263-15.541-72.526-15.541-108.789 0-39.717 6.907-77.707 18.995-115.696 12.088-36.263 29.356-69.073 53.531-98.428 22.449-27.629 51.804-51.804 84.614-67.346 32.809-17.268 69.073-24.175 110.516-24.175 20.722 0 43.17 3.454 63.892 8.634 22.449 5.18 43.17 13.815 63.892 24.175s39.717 25.902 56.985 43.17c17.268 17.268 31.083 39.717 41.444 63.892l189.949-112.243c-15.541-36.263-37.99-70.799-67.346-100.155s-63.892-53.531-103.609-74.253c-39.717-20.722-79.433-34.536-124.331-44.897-43.17-10.361-86.341-15.541-127.784-15.541-72.526 0-139.872 15.541-202.037 44.897-60.438 29.356-113.97 69.073-157.14 119.15-44.897 50.078-77.707 105.336-101.882 167.501-25.902 56.985-37.99 120.877-37.99 186.496zM2661.019 203.656c0-43.17-8.634-81.16-27.629-113.97-17.268-32.809-43.17-58.712-74.253-81.16-31.083-20.722-67.346-37.99-108.789-48.351s-86.341-15.541-132.965-15.541h-431.703v1010.185h500.776c34.536 0 67.346-6.907 94.975-22.449s51.804-34.536 72.526-58.712c20.722-24.175 34.536-51.804 46.624-82.887 10.361-31.083 15.541-62.165 15.541-94.975 0-48.351-12.088-93.248-36.263-136.418s-60.438-74.253-108.789-96.702c56.985-17.268 103.609-46.624 136.418-91.521 36.263-43.17 53.531-98.428 53.531-167.501zM2099.804 756.236v-208.944h188.223c25.902 0 48.351 8.634 69.073 25.902s29.356 43.17 29.356 79.433c0 32.809-8.634 58.712-25.902 75.98s-37.99 27.629-63.892 27.629h-196.857zM2424.445 250.28c0 31.083-8.634 56.985-27.629 79.433-17.268 22.449-41.444 32.809-69.073 32.809h-227.939v-221.032h217.578c31.083 0 55.258 10.361 75.98 29.356 20.722 20.722 31.083 48.351 31.083 79.433zM1638.745 443.683c0-94.416-76.539-170.954-170.954-170.954s-170.954 76.539-170.954 170.954c0 94.416 76.539 170.954 170.954 170.954s170.954-76.539 170.954-170.954z" />
<glyph unicode="&#xe953;" glyph-name="acb_full" horiz-adv-x="2661" d="M367.811 954.82h210.671l367.811-1010.185h-238.3l-77.707 226.212h-314.28l-75.98-226.212h-240.027l367.811 1010.185zM592.297 331.44l-117.423 357.45-120.877-357.45h238.3zM930.752 459.224c0 60.438 12.088 120.877 34.536 181.315s55.258 113.97 100.155 160.594c43.17 46.624 96.702 86.341 158.867 115.696s132.965 44.897 214.125 44.897c94.975 0 177.862-20.722 246.934-60.438 69.073-41.444 120.877-93.248 155.413-158.867l-179.589-124.331c-12.088 25.902-25.902 48.351-43.17 65.619s-36.263 31.083-56.985 43.17c-20.722 10.361-41.444 18.995-63.892 22.449s-43.17 6.907-63.892 6.907c-44.897 0-82.887-8.634-117.423-27.629-32.809-17.268-60.438-41.444-82.887-69.073s-37.99-60.438-48.351-96.702c-10.361-36.263-15.541-72.526-15.541-108.789 0-39.717 6.907-77.707 18.995-115.696 12.088-36.263 29.356-69.073 53.531-98.428 22.449-27.629 51.804-51.804 84.614-67.346 32.809-17.268 69.073-24.175 110.516-24.175 20.722 0 43.17 3.454 63.892 8.634 22.449 5.18 43.17 13.815 63.892 24.175s39.717 25.902 56.985 43.17c17.268 17.268 31.083 39.717 41.444 63.892l189.949-112.243c-15.541-36.263-37.99-70.799-67.346-100.155s-63.892-53.531-103.609-74.253c-39.717-20.722-79.433-34.536-124.331-44.897-43.17-10.361-86.341-15.541-127.784-15.541-72.526 0-139.872 15.541-202.037 44.897-60.438 29.356-113.97 69.073-157.14 119.15-44.897 50.078-77.707 105.336-101.882 167.501-25.902 56.985-37.99 120.877-37.99 186.496zM2661.019 203.656c0-43.17-8.634-81.16-27.629-113.97-17.268-32.809-43.17-58.712-74.253-81.16-31.083-20.722-67.346-37.99-108.789-48.351s-86.341-15.541-132.965-15.541h-431.703v1010.185h500.776c34.536 0 67.346-6.907 94.975-22.449s51.804-34.536 72.526-58.712c20.722-24.175 34.536-51.804 46.624-82.887 10.361-31.083 15.541-62.165 15.541-94.975 0-48.351-12.088-93.248-36.263-136.418s-60.438-74.253-108.789-96.702c56.985-17.268 103.609-46.624 136.418-91.521 36.263-43.17 53.531-98.428 53.531-167.501zM2099.804 756.236v-208.944h188.223c25.902 0 48.351 8.634 69.073 25.902s29.356 43.17 29.356 79.433c0 32.809-8.634 58.712-25.902 75.98s-37.99 27.629-63.892 27.629h-196.857zM2424.445 250.28c0 31.083-8.634 56.985-27.629 79.433-17.268 22.449-41.444 32.809-69.073 32.809h-227.939v-221.032h217.578c31.083 0 55.258 10.361 75.98 29.356 20.722 20.722 31.083 48.351 31.083 79.433zM1638.745 443.683c0-94.416-76.539-170.954-170.954-170.954s-170.954 76.539-170.954 170.954c0 94.416 76.539 170.954 170.954 170.954s170.954-76.539 170.954-170.954z" />
</font>
</defs>
</svg>
